#N canvas 0 0 972 473 10;
#N canvas 0 0 450 300 (subpatch) 0;
#X array \$0-sensVal 2 float 1;
#A 0 0 0;
#X coords 0 100 1 0 200 140 1 0 0;
#X restore 155 -3132 graph;
#X floatatom 278 -2961 5 0 0 0 - - -;
#X floatatom 190 -2965 5 0 0 0 - - -;
#X obj 392 -2944 f;
#X obj 419 -2944 + 1;
#X floatatom 392 -2919 5 0 0 0 - - -;
#X obj 392 -3003 tgl 15 0 empty empty empty 17 7 0 10 -262144 -1 -1
1 1;
#X msg 455 -2962 0;
#X obj 455 -2980 bng 15 250 50 0 empty empty empty 17 7 0 10 -262144
-1 -1;
#X floatatom 503 -2979 5 0 0 0 - - -;
#X obj 392 -2974 metro 80;
#X obj 440 -2920 threshold 2 0 2 0;
#X msg 576 -3222 0;
#X msg 676 -3223 1;
#X obj 644 -3148 -;
#X floatatom 644 -3117 5 0 0 0 - - -;
#X floatatom 645 -3059 5 0 0 0 - - -;
#X obj 694 -3113 autoscale 0 100;
#X obj 645 -3090 average 10;
#X obj 25 -3127 inlet;
#X obj 646 -3015 outlet;
#X obj 390 -3031 loadbang;
#X floatatom 242 -2797 5 0 0 0 - - -;
#X obj 215 -2863 bng 15 250 50 0 empty empty empty 17 7 0 10 -262144
-1 -1;
#X obj 238 -2833 f \$0;
#X obj 187 -2934 tabwrite \$0-sensVal;
#X obj 576 -3192 tabread \$0-sensVal;
#X obj 701 -3193 tabread \$0-sensVal;
#X connect 1 0 25 1;
#X connect 2 0 25 0;
#X connect 3 0 4 0;
#X connect 3 0 5 0;
#X connect 4 0 3 1;
#X connect 5 0 1 0;
#X connect 5 0 11 0;
#X connect 6 0 10 0;
#X connect 7 0 3 0;
#X connect 8 0 7 0;
#X connect 9 0 11 0;
#X connect 10 0 3 0;
#X connect 10 0 12 0;
#X connect 10 0 13 0;
#X connect 11 0 8 0;
#X connect 12 0 26 0;
#X connect 13 0 27 0;
#X connect 14 0 15 0;
#X connect 15 0 17 0;
#X connect 15 0 18 0;
#X connect 16 0 20 0;
#X connect 18 0 16 0;
#X connect 19 0 2 0;
#X connect 21 0 6 0;
#X connect 23 0 24 0;
#X connect 24 0 22 0;
#X connect 26 0 14 1;
#X connect 27 0 14 0;
