#N canvas -8 -8 1366 686 10;
#X msg 188 162 127;
#X obj 116 199 ctlout 1 1;
#X msg 116 158 127;
#X msg 325 161 127;
#X msg 257 157 127;
#X obj 257 198 ctlout 1 3;
#X msg 392 160 127;
#X obj 392 197 ctlout 1 5;
#X obj 117 98 bng 15 250 50 0 empty empty empty 17 7 0 10 -262144 -1
-1;
#X obj 187 96 bng 15 250 50 0 empty empty empty 17 7 0 10 -262144 -1
-1;
#X obj 257 97 bng 15 250 50 0 empty empty empty 17 7 0 10 -262144 -1
-1;
#X obj 351 110 bng 15 250 50 0 empty empty empty 17 7 0 10 -262144
-1 -1;
#X obj 445 100 bng 15 250 50 0 empty empty empty 17 7 0 10 -262144
-1 -1;
#X obj 107 -6 hsl 128 15 0 100 0 0 empty empty empty -2 -8 0 10 -262144
-1 -1 12500 1;
#X floatatom 25 1 5 0 0 0 - - -;
#X obj -127 57 threshold 1 0 1 0;
#X msg 36 155 127;
#X obj 39 200 ctlout 1 6;
#X obj 46 112 bng 15 250 50 0 empty empty empty 17 7 0 10 -262144 -1
-1;
#X obj 480 58 threshold 80 0 80 0;
#X obj 356 58 threshold 60 0 60 0;
#X obj 232 58 threshold 40 0 40 0;
#X obj 109 57 threshold 20 0 20 0;
#X obj -16 56 threshold 1 0 1 0;
#X obj 188 199 ctlout 1 4;
#X obj 325 198 ctlout 1 1;
#X obj 41 -37 inlet;
#X connect 0 0 24 0;
#X connect 2 0 1 0;
#X connect 3 0 25 0;
#X connect 4 0 5 0;
#X connect 6 0 7 0;
#X connect 8 0 2 0;
#X connect 9 0 0 0;
#X connect 10 0 4 0;
#X connect 11 0 3 0;
#X connect 12 0 6 0;
#X connect 13 0 14 0;
#X connect 13 0 15 0;
#X connect 13 0 19 0;
#X connect 13 0 20 0;
#X connect 13 0 21 0;
#X connect 13 0 22 0;
#X connect 13 0 23 0;
#X connect 15 0 18 0;
#X connect 16 0 17 0;
#X connect 18 0 16 0;
#X connect 19 0 12 0;
#X connect 19 1 11 0;
#X connect 20 0 11 0;
#X connect 20 1 10 0;
#X connect 21 0 10 0;
#X connect 21 1 9 0;
#X connect 22 0 9 0;
#X connect 22 1 8 0;
#X connect 23 0 8 0;
#X connect 23 1 18 0;
#X connect 26 0 13 0;
