#N canvas 0 0 1280 670 10;
#X declare -lib mrpeach;
#X obj 66 103 unpackOSC;
#X obj 42 30 import mrpeach;
#X floatatom 31 239 5 0 0 0 - - -;
#X floatatom 71 239 5 0 0 0 - - -;
#X floatatom 111 239 5 0 0 0 - - -;
#X obj 66 79 udpreceive 3334;
#X obj 292 113 split;
#X msg 300 47 /sliders/a 45;
#X obj 36 196 routeOSC /x /y /z;
#X floatatom 178 262 5 0 0 0 - - -;
#X floatatom 218 262 5 0 0 0 - - -;
#X floatatom 258 262 5 0 0 0 - - -;
#X obj 187 198 routeOSC /x /y /z;
#X obj 190 169 routeOSC /13/sliders;
#X obj 39 167 routeOSC /20/sliders;
#N canvas 840 233 450 301 maxValOut 0;
#X floatatom 70 158 5 0 0 0 - - -;
#X floatatom 151 157 5 0 0 0 - - -;
#X floatatom 236 155 5 0 0 0 - - -;
#X floatatom 75 52 5 0 0 0 - - -;
#X floatatom 220 50 5 0 0 0 - - -;
#X obj 75 79 expr $f1 \; $f2 \; if ($f1 > $f2 \, $f1 \, $f2) \;;
#X obj 119 184 max;
#X floatatom 123 212 5 0 0 0 - - -;
#X msg 185 26 \$1;
#X obj 113 260 outlet;
#X obj 32 10 inlet;
#X msg 319 70 0;
#X obj 313 49 loadbang;
#X obj 251 14 inlet;
#X connect 0 0 6 0;
#X connect 1 0 6 1;
#X connect 3 0 5 0;
#X connect 4 0 5 1;
#X connect 5 0 0 0;
#X connect 5 1 1 0;
#X connect 5 2 2 0;
#X connect 6 0 7 0;
#X connect 7 0 8 0;
#X connect 7 0 9 0;
#X connect 8 0 4 0;
#X connect 10 0 3 0;
#X connect 11 0 4 0;
#X connect 11 0 3 0;
#X connect 11 0 7 0;
#X connect 12 0 11 0;
#X connect 13 0 11 0;
#X restore -92 574 pd maxValOut;
#N canvas 840 233 450 301 minValOut 0;
#X floatatom 70 158 5 0 0 0 - - -;
#X floatatom 151 157 5 0 0 0 - - -;
#X floatatom 236 155 5 0 0 0 - - -;
#X floatatom 75 52 5 0 0 0 - - -;
#X floatatom 220 50 5 0 0 0 - - -;
#X floatatom 123 212 5 0 0 0 - - -;
#X msg 185 26 \$1;
#X obj 113 260 outlet;
#X obj 32 10 inlet;
#X msg 319 70 0;
#X obj 313 49 loadbang;
#X obj 251 14 inlet;
#X obj 75 79 expr $f1 \; $f2 \; if ($f1 < $f2 \, $f1 \, $f2) \;;
#X obj 119 184 min;
#X connect 0 0 13 0;
#X connect 1 0 13 1;
#X connect 3 0 12 0;
#X connect 4 0 12 1;
#X connect 5 0 6 0;
#X connect 5 0 7 0;
#X connect 6 0 4 0;
#X connect 8 0 3 0;
#X connect 9 0 4 0;
#X connect 9 0 3 0;
#X connect 9 0 5 0;
#X connect 10 0 9 0;
#X connect 11 0 9 0;
#X connect 12 0 0 0;
#X connect 12 1 1 0;
#X connect 12 2 2 0;
#X connect 13 0 5 0;
#X restore 3 565 pd minValOut;
#X obj -23 551 bng 15 250 50 0 empty empty empty 17 7 0 10 -262144
-1 -1;
#X obj 68 550 bng 15 250 50 0 empty empty empty 17 7 0 10 -262144 -1
-1;
#X floatatom -92 609 5 0 0 0 - - -;
#X floatatom -1 610 5 0 0 0 - - -;
#X obj 526 164 vsl 200 300 0 100 0 0 empty 20-slider empty 0 -9 0 4
-4034 -1 -1 0 1;
#X obj 756 164 vsl 200 300 0 100 0 0 empty 13-slider empty 0 -9 0 4
-258113 -1 -1 2104 1;
#X obj 183 296 averageAcc 13;
#X obj 49 272 averageAcc 20;
#X floatatom 356 228 5 0 0 0 - - -;
#X obj 447 88 vsl 15 128 0 100 0 0 empty empty empty 0 -9 0 10 -262144
-1 -1 5000 1;
#X obj 177 381 midiSender 2;
#X obj 54 373 midiSender 1;
#X connect 0 0 13 0;
#X connect 0 0 14 0;
#X connect 2 0 24 0;
#X connect 3 0 24 1;
#X connect 4 0 24 2;
#X connect 5 0 0 0;
#X connect 8 0 2 0;
#X connect 8 1 3 0;
#X connect 8 2 4 0;
#X connect 9 0 23 0;
#X connect 10 0 23 1;
#X connect 11 0 23 2;
#X connect 12 0 9 0;
#X connect 12 1 10 0;
#X connect 12 2 11 0;
#X connect 13 0 12 0;
#X connect 14 0 8 0;
#X connect 15 0 19 0;
#X connect 16 0 20 0;
#X connect 17 0 15 1;
#X connect 18 0 16 1;
#X connect 23 0 27 0;
#X connect 24 0 28 0;
#X connect 26 0 25 0;
