#N canvas -8 -8 1366 686 10;
#X declare -lib mrpeach;
#X obj 66 103 unpackOSC;
#X obj 42 30 import mrpeach;
#X floatatom 27 260 5 0 0 0 - - -;
#X floatatom 67 260 5 0 0 0 - - -;
#X floatatom 107 260 5 0 0 0 - - -;
#X obj 66 79 udpreceive 3334;
#X obj 292 113 split;
#X msg 300 47 /sliders/a 45;
#X obj 36 196 routeOSC /x /y /z;
#X floatatom 178 262 5 0 0 0 - - -;
#X floatatom 218 262 5 0 0 0 - - -;
#X floatatom 258 262 5 0 0 0 - - -;
#X obj 187 198 routeOSC /x /y /z;
#X obj 190 169 routeOSC /13/sliders;
#X obj 39 167 routeOSC /20/sliders;
#X obj 28 287 abs;
#X obj 70 288 abs;
#X obj 107 292 abs;
#X obj 46 444 +;
#X obj 123 439 +;
#X floatatom 122 528 5 0 0 0 - - -;
#X floatatom 119 587 5 0 0 0 - - -;
#X obj 204 584 midiSender;
#X obj -25 360 autoscale 0 100;
#X msg -24 329 reset;
#X obj 77 360 autoscale 0 100;
#X msg 78 329 reset;
#X obj 179 360 autoscale 0 100;
#X msg 180 329 reset;
#X floatatom 189 382 5 0 0 0 - - -;
#X floatatom 79 381 5 0 0 0 - - -;
#X floatatom -24 384 5 0 0 0 - - -;
#X obj 119 556 average 50;
#X obj 135 479 autoscale 0 100;
#X msg 208 438 reset;
#X floatatom 296 343 5 0 0 0 - - -;
#X obj 243 307 - 9;
#X obj -69 453 expr;
#N canvas 840 233 450 301 maxValOut 0;
#X floatatom 70 158 5 0 0 0 - - -;
#X floatatom 151 157 5 0 0 0 - - -;
#X floatatom 236 155 5 0 0 0 - - -;
#X floatatom 75 52 5 0 0 0 - - -;
#X floatatom 220 50 5 0 0 0 - - -;
#X obj 75 79 expr $f1 \; $f2 \; if ($f1 > $f2 \, $f1 \, $f2) \;;
#X obj 119 184 max;
#X floatatom 123 212 5 0 0 0 - - -;
#X msg 185 26 \$1;
#X obj 113 260 outlet;
#X obj 32 10 inlet;
#X msg 319 70 0;
#X obj 313 49 loadbang;
#X obj 251 14 inlet;
#X connect 0 0 6 0;
#X connect 1 0 6 1;
#X connect 3 0 5 0;
#X connect 4 0 5 1;
#X connect 5 0 0 0;
#X connect 5 1 1 0;
#X connect 5 2 2 0;
#X connect 6 0 7 0;
#X connect 7 0 8 0;
#X connect 7 0 9 0;
#X connect 8 0 4 0;
#X connect 10 0 3 0;
#X connect 11 0 4 0;
#X connect 11 0 3 0;
#X connect 11 0 7 0;
#X connect 12 0 11 0;
#X connect 13 0 11 0;
#X restore -92 574 pd maxValOut;
#N canvas 840 233 450 301 minValOut 0;
#X floatatom 70 158 5 0 0 0 - - -;
#X floatatom 151 157 5 0 0 0 - - -;
#X floatatom 236 155 5 0 0 0 - - -;
#X floatatom 75 52 5 0 0 0 - - -;
#X floatatom 220 50 5 0 0 0 - - -;
#X floatatom 123 212 5 0 0 0 - - -;
#X msg 185 26 \$1;
#X obj 113 260 outlet;
#X obj 32 10 inlet;
#X msg 319 70 0;
#X obj 313 49 loadbang;
#X obj 251 14 inlet;
#X obj 75 79 expr $f1 \; $f2 \; if ($f1 < $f2 \, $f1 \, $f2) \;;
#X obj 119 184 min;
#X connect 0 0 13 0;
#X connect 1 0 13 1;
#X connect 3 0 12 0;
#X connect 4 0 12 1;
#X connect 5 0 6 0;
#X connect 5 0 7 0;
#X connect 6 0 4 0;
#X connect 8 0 3 0;
#X connect 9 0 4 0;
#X connect 9 0 3 0;
#X connect 9 0 5 0;
#X connect 10 0 9 0;
#X connect 11 0 9 0;
#X connect 12 0 0 0;
#X connect 12 1 1 0;
#X connect 12 2 2 0;
#X connect 13 0 5 0;
#X restore 3 565 pd minValOut;
#X obj -23 551 bng 15 250 50 0 empty empty empty 17 7 0 10 -262144
-1 -1;
#X obj 68 550 bng 15 250 50 0 empty empty empty 17 7 0 10 -262144 -1
-1;
#X floatatom -92 609 5 0 0 0 - - -;
#X floatatom -1 610 5 0 0 0 - - -;
#X floatatom 21 503 5 0 0 0 - - -;
#X obj 241 517 maxlib/scale 0 70 0 100;
#X floatatom 339 449 5 0 0 0 - - -;
#X obj 339 418 average 50;
#N canvas 0 0 450 300 (subpatch) 0;
#X array sensVal 2 float 1;
#A 0 1 1;
#X coords 0 100 1 0 200 140 1 0 0;
#X restore 494 377 graph;
#X obj 526 575 tabwrite sensVal;
#X floatatom 617 548 5 0 0 0 - - -;
#X floatatom 529 544 5 0 0 0 - - -;
#X obj 731 565 f;
#X obj 758 565 + 1;
#X floatatom 731 590 5 0 0 0 - - -;
#X obj 731 506 tgl 15 0 empty empty empty 17 7 0 10 -262144 -1 -1 1
1;
#X msg 794 547 0;
#X obj 794 529 bng 15 250 50 0 empty empty empty 17 7 0 10 -262144
-1 -1;
#X floatatom 842 530 5 0 0 0 - - -;
#X obj 731 535 metro 80;
#X obj 779 589 threshold 2 0 2 0;
#X floatatom 697 210 5 0 0 0 - - -;
#X floatatom 778 209 5 0 0 0 - - -;
#X floatatom 863 207 5 0 0 0 - - -;
#X obj 702 131 expr $f1 \; $f2 \; if ($f1 < $f2 \, $f1 \, $f2) \;;
#X obj 702 82 tabread sensVal;
#X msg 702 52 0;
#X obj 802 81 tabread sensVal;
#X msg 802 51 1;
#X obj 915 317 tabread sensVal;
#X msg 915 287 0;
#X obj 1015 316 tabread sensVal;
#X msg 1015 286 1;
#X obj 983 361 -;
#X floatatom 983 392 5 0 0 0 - - -;
#X floatatom 984 450 5 0 0 0 - - -;
#X obj 984 419 average 50;
#X obj 1033 396 autoscale 0 100;
#X connect 0 0 13 0;
#X connect 0 0 14 0;
#X connect 2 0 15 0;
#X connect 3 0 16 0;
#X connect 4 0 36 0;
#X connect 4 0 38 0;
#X connect 4 0 39 0;
#X connect 5 0 0 0;
#X connect 8 0 2 0;
#X connect 8 1 3 0;
#X connect 8 2 4 0;
#X connect 12 0 9 0;
#X connect 12 1 10 0;
#X connect 12 2 11 0;
#X connect 13 0 12 0;
#X connect 14 0 8 0;
#X connect 15 0 23 0;
#X connect 15 0 51 0;
#X connect 16 0 25 0;
#X connect 17 0 27 0;
#X connect 17 0 35 0;
#X connect 18 0 19 0;
#X connect 18 0 33 0;
#X connect 20 0 32 0;
#X connect 21 0 22 0;
#X connect 23 0 18 0;
#X connect 23 0 31 0;
#X connect 24 0 23 0;
#X connect 25 0 18 1;
#X connect 25 0 30 0;
#X connect 26 0 25 0;
#X connect 27 0 19 1;
#X connect 27 0 29 0;
#X connect 28 0 27 0;
#X connect 32 0 21 0;
#X connect 33 0 44 0;
#X connect 33 0 45 0;
#X connect 33 0 47 0;
#X connect 34 0 33 0;
#X connect 36 0 17 0;
#X connect 38 0 42 0;
#X connect 39 0 43 0;
#X connect 40 0 38 1;
#X connect 41 0 39 1;
#X connect 45 0 20 0;
#X connect 47 0 46 0;
#X connect 50 0 49 1;
#X connect 51 0 49 0;
#X connect 52 0 53 0;
#X connect 52 0 54 0;
#X connect 53 0 52 1;
#X connect 54 0 50 0;
#X connect 54 0 60 0;
#X connect 55 0 59 0;
#X connect 56 0 52 0;
#X connect 57 0 56 0;
#X connect 58 0 60 0;
#X connect 59 0 52 0;
#X connect 59 0 70 0;
#X connect 59 0 72 0;
#X connect 60 0 57 0;
#X connect 64 0 61 0;
#X connect 64 1 62 0;
#X connect 64 2 63 0;
#X connect 65 0 64 0;
#X connect 66 0 65 0;
#X connect 67 0 64 1;
#X connect 68 0 67 0;
#X connect 69 0 73 1;
#X connect 70 0 69 0;
#X connect 71 0 73 0;
#X connect 72 0 71 0;
#X connect 73 0 74 0;
#X connect 74 0 77 0;
#X connect 76 0 75 0;
#X connect 77 0 76 0;
