#N canvas 905 36 450 300 10;
#X obj -2354 146 udpsend;
#X obj -2678 50 loadbang;
#X obj -2354 80 packOSC;
#X msg -2678 75 connect localhost 7000;
#X obj -2672 -175 vsl 15 128 0 127 0 0 empty empty empty 0 -9 0 10
-262144 -1 -1 0 1;
#X obj -2546 -175 vsl 15 128 0 127 0 0 empty empty empty 0 -9 0 10
-262144 -1 -1 0 1;
#X obj -2413 -173 vsl 15 128 0 127 0 0 empty empty empty 0 -9 0 10
-262144 -1 -1 0 1;
#X msg -2672 -34 send /sliders/a \$1;
#X msg -2546 -34 send /sliders/b \$1;
#X msg -2414 -35 send /sliders/c \$1;
#X connect 1 0 3 0;
#X connect 2 0 0 0;
#X connect 3 0 0 0;
#X connect 4 0 7 0;
#X connect 5 0 8 0;
#X connect 6 0 9 0;
#X connect 7 0 2 0;
#X connect 8 0 2 0;
#X connect 9 0 2 0;
