#N canvas 626 173 450 300 10;
#X floatatom 210 -838 5 0 0 0 - - -;
#X floatatom 102 -713 5 0 0 0 - - -;
#X floatatom 64 -785 5 0 0 0 - - -;
#X obj 62 -810 abs;
#X obj 62 -837 diff;
#X floatatom 99 -785 5 0 0 0 - - -;
#X obj 100 -812 abs;
#X obj 100 -837 diff;
#X floatatom 135 -785 5 0 0 0 - - -;
#X obj 135 -812 abs;
#X obj 136 -837 diff;
#X obj 75 -743 +;
#X obj 102 -744 +;
#X obj 92 -655 autoscale 0 100;
#X floatatom 87 -610 5 0 0 0 - - -;
#X msg 239 -691 reset;
#X obj 54 -687 average 40;
#X obj 91 -635 maxlib/scale 0 80 0 100;
#X obj 62 -861 inlet;
#X obj 25 -599 outlet;
#X obj 98 -860 inlet;
#X obj 135 -860 inlet;
#X obj 147 -711 loadbang;
#X obj 22 -722 i;
#X floatatom 13 -700 5 0 0 0 - - -;
#X connect 2 0 11 0;
#X connect 3 0 2 0;
#X connect 4 0 3 0;
#X connect 5 0 11 1;
#X connect 6 0 5 0;
#X connect 7 0 6 0;
#X connect 8 0 12 1;
#X connect 9 0 8 0;
#X connect 10 0 9 0;
#X connect 11 0 1 0;
#X connect 11 0 23 0;
#X connect 13 0 17 0;
#X connect 14 0 19 0;
#X connect 15 0 13 0;
#X connect 16 0 13 0;
#X connect 17 0 14 0;
#X connect 18 0 4 0;
#X connect 20 0 7 0;
#X connect 21 0 10 0;
#X connect 22 0 15 0;
#X connect 23 0 24 0;
#X connect 24 0 16 0;
