#N canvas 0 0 1362 686 10;
#X obj 576 223 s blackSlider;
#X obj 500 223 s redSlider;
#X obj 153 221 s greenSlider;
#X obj 415 222 s blueSlider;
#X obj 663 222 s orangeSlider;
#X obj 66 223 s brownSlider;
#X obj 239 221 s cyanSlider;
#X obj -116 223 s greySlider;
#X obj 321 221 s yellowSlider;
#X obj -31 222 s purpleSlider;
#X floatatom 576 201 5 0 0 0 - - -;
#X floatatom 500 201 5 0 0 0 - - -;
#X floatatom 153 199 5 0 0 0 - - -;
#X floatatom 415 200 5 0 0 0 - - -;
#X floatatom 663 200 5 0 0 0 - - -;
#X floatatom 66 201 5 0 0 0 - - -;
#X floatatom 239 199 5 0 0 0 - - -;
#X floatatom -116 201 5 0 0 0 - - -;
#X floatatom 321 199 5 0 0 0 - - -;
#X floatatom -31 200 5 0 0 0 - - -;
#X obj -129 82 tgl 15 0 empty empty empty 17 7 0 10 -262144 -1 -1 1
1;
#X obj -129 53 loadbang;
#X obj 662 173 calcOrange;
#X obj 576 177 calcBlack;
#X obj 500 178 calcRed;
#X obj 415 177 calcBlue;
#X obj 236 170 calcCyan;
#X obj 153 170 calcGreen;
#X obj -31 171 calcPurple;
#X obj 66 171 calcBrown;
#X obj 321 175 calcYellow;
#X obj -129 112 metro 1;
#X obj -116 173 calcGrey;
#X connect 10 0 0 0;
#X connect 11 0 1 0;
#X connect 12 0 2 0;
#X connect 13 0 3 0;
#X connect 14 0 4 0;
#X connect 15 0 5 0;
#X connect 16 0 6 0;
#X connect 17 0 7 0;
#X connect 18 0 8 0;
#X connect 19 0 9 0;
#X connect 20 0 31 0;
#X connect 21 0 20 0;
#X connect 22 0 14 0;
#X connect 23 0 10 0;
#X connect 24 0 11 0;
#X connect 25 0 13 0;
#X connect 26 0 16 0;
#X connect 27 0 12 0;
#X connect 28 0 19 0;
#X connect 29 0 15 0;
#X connect 30 0 18 0;
#X connect 31 0 22 0;
#X connect 31 0 23 0;
#X connect 31 0 24 0;
#X connect 31 0 25 0;
#X connect 31 0 26 0;
#X connect 31 0 27 0;
#X connect 31 0 28 0;
#X connect 31 0 29 0;
#X connect 31 0 30 0;
#X connect 31 0 32 0;
#X connect 32 0 17 0;
