#N canvas 162 37 511 686 10;
#X msg 188 162 127;
#X msg 116 158 127;
#X msg 257 157 127;
#X obj 117 98 bng 15 250 50 0 empty empty empty 17 7 0 10 -262144 -1
-1;
#X obj 187 96 bng 15 250 50 0 empty empty empty 17 7 0 10 -262144 -1
-1;
#X obj 257 97 bng 15 250 50 0 empty empty empty 17 7 0 10 -262144 -1
-1;
#X obj 107 -6 hsl 128 15 0 100 0 0 empty empty empty -2 -8 0 10 -262144
-1 -1 0 1;
#X floatatom 25 1 5 0 0 0 - - -;
#X obj -127 57 threshold 1 0 1 0;
#X msg 40 157 127;
#X obj 46 112 bng 15 250 50 0 empty empty empty 17 7 0 10 -262144 -1
-1;
#X obj -16 56 threshold 1 0 1 0;
#X obj 41 -37 inlet;
#X obj 232 58 threshold 60 0 60 0;
#X obj 116 199 ctlout \$1 2;
#X obj 188 199 ctlout \$1 3;
#X obj 266 199 ctlout \$1 4;
#X obj 39 199 ctlout \$1 5;
#X obj 107 53 threshold 50 0 50 0;
#X connect 0 0 15 0;
#X connect 1 0 14 0;
#X connect 2 0 16 0;
#X connect 3 0 1 0;
#X connect 4 0 0 0;
#X connect 5 0 2 0;
#X connect 6 0 7 0;
#X connect 6 0 13 0;
#X connect 6 0 18 0;
#X connect 8 0 10 0;
#X connect 9 0 17 0;
#X connect 10 0 9 0;
#X connect 11 0 3 0;
#X connect 11 1 10 0;
#X connect 12 0 6 0;
#X connect 18 0 4 0;
#X connect 18 1 3 0;
