#N canvas 19 17 511 686 10;
#X obj 113 -6 hsl 128 15 0 127 0 0 empty empty empty -2 -8 0 10 -262144
-1 -1 0 1;
#X floatatom 25 1 5 0 0 0 - - -;
#X obj 41 -37 inlet;
#X obj 104 58 ctlout \$1 5;
#X connect 0 0 1 0;
#X connect 0 0 3 0;
#X connect 2 0 0 0;
