#N canvas 699 54 511 686 10;
#X msg 188 162 127;
#X msg 257 157 127;
#X obj 117 98 bng 15 250 50 0 empty empty empty 17 7 0 10 -262144 -1
-1;
#X obj 187 96 bng 15 250 50 0 empty empty empty 17 7 0 10 -262144 -1
-1;
#X obj 257 97 bng 15 250 50 0 empty empty empty 17 7 0 10 -262144 -1
-1;
#X obj 107 -6 hsl 128 15 0 100 0 0 empty empty empty -2 -8 0 10 -262144
-1 -1 0 1;
#X floatatom 25 1 5 0 0 0 - - -;
#X obj -127 57 threshold 1 0 1 0;
#X obj 46 112 bng 15 250 50 0 empty empty empty 17 7 0 10 -262144 -1
-1;
#X obj -16 56 threshold 1 0 1 0;
#X obj 41 -37 inlet;
#X obj 232 58 threshold 60 0 60 0;
#X obj 116 199 ctlout \$1 2;
#X obj 188 199 ctlout \$1 3;
#X obj 266 199 ctlout \$1 4;
#X obj 58 266 ctlout \$1 5;
#X obj 102 -27 maxlib/scale 0 127 0 100;
#X obj 107 53 threshold 30 0 30 0;
#X obj -48 178 vsl 15 128 0 127 0 0 empty empty empty 0 -9 0 10 -262144
-1 -1 0 1;
#X msg 44 149 127;
#X msg 116 158 0;
#X connect 0 0 18 0;
#X connect 2 0 20 0;
#X connect 3 0 0 0;
#X connect 4 0 1 0;
#X connect 5 0 6 0;
#X connect 5 0 11 0;
#X connect 5 0 17 0;
#X connect 7 0 8 0;
#X connect 8 0 19 0;
#X connect 9 0 2 0;
#X connect 9 1 8 0;
#X connect 10 0 16 0;
#X connect 16 0 5 0;
#X connect 17 0 3 0;
#X connect 17 1 2 0;
#X connect 18 0 15 0;
#X connect 20 0 18 0;
