#N canvas 420 113 1362 686 10;
#X obj -855 269 routeOSC /\$1/blue;
#X obj -654 269 routeOSC /\$1/red;
#X obj -430 269 routeOSC /\$1/green;
#X obj -208 269 routeOSC /\$1/yellow;
#X obj -1061 269 routeOSC /\$1/orange;
#X obj -857 416 routeOSC /\$1/brown;
#X obj -646 416 routeOSC /\$1/purple;
#X obj -424 416 routeOSC /\$1/grey;
#X obj -234 418 routeOSC /\$1/black;
#X obj -1076 416 routeOSC /\$1/cyan;
#X floatatom -885 336 5 0 0 0 - - -;
#X floatatom -817 336 5 0 0 0 - - -;
#X floatatom -749 336 5 0 0 0 - - -;
#X obj -855 291 routeOSC /x /y /z;
#X obj -885 357 s \$1-blueX;
#X obj -817 357 s \$1-blueY;
#X obj -749 357 s \$1-blueZ;
#X floatatom -656 334 5 0 0 0 - - -;
#X floatatom -598 336 5 0 0 0 - - -;
#X floatatom -530 336 5 0 0 0 - - -;
#X obj -654 291 routeOSC /x /y /z;
#X obj -656 358 s \$1-redX;
#X obj -598 357 s \$1-redY;
#X obj -530 357 s \$1-redZ;
#X floatatom -453 336 5 0 0 0 - - -;
#X floatatom -385 336 5 0 0 0 - - -;
#X floatatom -317 336 5 0 0 0 - - -;
#X obj -430 291 routeOSC /x /y /z;
#X obj -453 357 s \$1-greenX;
#X obj -385 357 s \$1-greenY;
#X obj -317 357 s \$1-greenZ;
#X floatatom -234 336 5 0 0 0 - - -;
#X floatatom -166 336 5 0 0 0 - - -;
#X floatatom -98 336 5 0 0 0 - - -;
#X obj -208 291 routeOSC /x /y /z;
#X obj -234 357 s \$1-yellowX;
#X obj -166 357 s \$1-yellowY;
#X obj -98 357 s \$1-yellowZ;
#X floatatom -1099 336 5 0 0 0 - - -;
#X floatatom -1031 336 5 0 0 0 - - -;
#X floatatom -963 336 5 0 0 0 - - -;
#X obj -1061 291 routeOSC /x /y /z;
#X obj -1099 357 s \$1-orangeX;
#X obj -1031 357 s \$1-orangeY;
#X obj -963 357 s \$1-orangeZ;
#X floatatom -888 477 5 0 0 0 - - -;
#X floatatom -820 477 5 0 0 0 - - -;
#X floatatom -752 477 5 0 0 0 - - -;
#X obj -857 438 routeOSC /x /y /z;
#X obj -888 498 s \$1-brownX;
#X obj -820 498 s \$1-brownY;
#X obj -752 498 s \$1-brownZ;
#X floatatom -669 477 5 0 0 0 - - -;
#X floatatom -601 477 5 0 0 0 - - -;
#X floatatom -533 477 5 0 0 0 - - -;
#X obj -646 438 routeOSC /x /y /z;
#X obj -669 498 s \$1-purpleX;
#X obj -601 498 s \$1-purpleY;
#X obj -533 498 s \$1-purpleZ;
#X floatatom -456 477 5 0 0 0 - - -;
#X floatatom -388 477 5 0 0 0 - - -;
#X floatatom -320 477 5 0 0 0 - - -;
#X obj -424 438 routeOSC /x /y /z;
#X obj -456 498 s \$1-greyX;
#X obj -388 498 s \$1-greyY;
#X obj -320 498 s \$1-greyZ;
#X floatatom -237 477 5 0 0 0 - - -;
#X floatatom -169 477 5 0 0 0 - - -;
#X floatatom -101 477 5 0 0 0 - - -;
#X obj -234 440 routeOSC /x /y /z;
#X obj -237 498 s \$1-blackX;
#X obj -169 498 s \$1-blackY;
#X obj -101 498 s \$1-blackZ;
#X floatatom -1102 477 5 0 0 0 - - -;
#X floatatom -1034 477 5 0 0 0 - - -;
#X floatatom -966 477 5 0 0 0 - - -;
#X obj -1076 438 routeOSC /x /y /z;
#X obj -1102 498 s \$1-cyanX;
#X obj -1034 498 s \$1-cyanY;
#X obj -966 498 s \$1-cyanZ;
#X obj -1061 247 r in;
#X obj -855 247 r in;
#X obj -654 247 r in;
#X obj -430 247 r in;
#X obj -208 247 r in;
#X obj -1076 394 r in;
#X obj -857 394 r in;
#X obj -646 394 r in;
#X obj -424 394 r in;
#X obj -234 396 r in;
#X obj -1060 202 s in;
#X obj -1060 176 r nOSCMsg;
#X connect 0 0 13 0;
#X connect 1 0 20 0;
#X connect 2 0 27 0;
#X connect 3 0 34 0;
#X connect 4 0 41 0;
#X connect 5 0 48 0;
#X connect 6 0 55 0;
#X connect 7 0 62 0;
#X connect 8 0 69 0;
#X connect 9 0 76 0;
#X connect 10 0 14 0;
#X connect 11 0 15 0;
#X connect 12 0 16 0;
#X connect 13 0 10 0;
#X connect 13 1 11 0;
#X connect 13 2 12 0;
#X connect 17 0 21 0;
#X connect 18 0 22 0;
#X connect 19 0 23 0;
#X connect 20 0 17 0;
#X connect 20 1 18 0;
#X connect 20 2 19 0;
#X connect 24 0 28 0;
#X connect 25 0 29 0;
#X connect 26 0 30 0;
#X connect 27 0 24 0;
#X connect 27 1 25 0;
#X connect 27 2 26 0;
#X connect 31 0 35 0;
#X connect 32 0 36 0;
#X connect 33 0 37 0;
#X connect 34 0 31 0;
#X connect 34 1 32 0;
#X connect 34 2 33 0;
#X connect 38 0 42 0;
#X connect 39 0 43 0;
#X connect 40 0 44 0;
#X connect 41 0 38 0;
#X connect 41 1 39 0;
#X connect 41 2 40 0;
#X connect 45 0 49 0;
#X connect 46 0 50 0;
#X connect 47 0 51 0;
#X connect 48 0 45 0;
#X connect 48 1 46 0;
#X connect 48 2 47 0;
#X connect 52 0 56 0;
#X connect 53 0 57 0;
#X connect 54 0 58 0;
#X connect 55 0 52 0;
#X connect 55 1 53 0;
#X connect 55 2 54 0;
#X connect 59 0 63 0;
#X connect 60 0 64 0;
#X connect 61 0 65 0;
#X connect 62 0 59 0;
#X connect 62 1 60 0;
#X connect 62 2 61 0;
#X connect 66 0 70 0;
#X connect 67 0 71 0;
#X connect 68 0 72 0;
#X connect 69 0 66 0;
#X connect 69 1 67 0;
#X connect 69 2 68 0;
#X connect 73 0 77 0;
#X connect 74 0 78 0;
#X connect 75 0 79 0;
#X connect 76 0 73 0;
#X connect 76 1 74 0;
#X connect 76 2 75 0;
#X connect 80 0 4 0;
#X connect 81 0 0 0;
#X connect 82 0 1 0;
#X connect 83 0 2 0;
#X connect 84 0 3 0;
#X connect 85 0 9 0;
#X connect 86 0 5 0;
#X connect 87 0 6 0;
#X connect 88 0 7 0;
#X connect 89 0 8 0;
#X connect 91 0 90 0;
