#N canvas 562 62 794 265 10;
#X obj -1328 157 packOSC;
#X obj -1527 102 udpsend 3334;
#X floatatom -1151 24 5 0 0 0 - - -;
#X msg -1527 54 connect localhost 3334;
#X obj -1190 24 f \$1;
#X obj -1190 -6 loadbang;
#X floatatom -1291 22 5 0 0 0 - - -;
#X obj -1330 22 f \$1;
#X obj -1330 -8 loadbang;
#X floatatom -1011 22 5 0 0 0 - - -;
#X obj -1050 22 f \$1;
#X obj -1050 -8 loadbang;
#X obj -1330 77 pack f f;
#X obj -1190 79 pack f f;
#X obj -1050 77 pack f f;
#X obj -1312 47 t b f;
#X obj -1171 48 t b f;
#X obj -1030 48 t b f;
#X msg -1329 118 send /\$1/red/x \$2;
#X msg -1190 118 send /\$1/red/y \$2;
#X msg -1051 118 send /\$1/red/z \$2;
#X obj -1324 410 packOSC;
#X floatatom -1147 277 5 0 0 0 - - -;
#X obj -1186 277 f \$1;
#X obj -1186 247 loadbang;
#X floatatom -1287 275 5 0 0 0 - - -;
#X obj -1326 275 f \$1;
#X obj -1326 245 loadbang;
#X floatatom -1007 275 5 0 0 0 - - -;
#X obj -1046 275 f \$1;
#X obj -1046 245 loadbang;
#X obj -1326 330 pack f f;
#X obj -1186 332 pack f f;
#X obj -1046 330 pack f f;
#X obj -1308 300 t b f;
#X obj -1167 301 t b f;
#X obj -1026 301 t b f;
#X msg -1325 371 send /\$1/orange/x \$2;
#X msg -1186 371 send /\$1/orange/y \$2;
#X msg -1047 371 send /\$1/orange/z \$2;
#X obj -683 164 packOSC;
#X floatatom -506 31 5 0 0 0 - - -;
#X obj -545 31 f \$1;
#X obj -545 1 loadbang;
#X floatatom -646 29 5 0 0 0 - - -;
#X obj -685 29 f \$1;
#X obj -685 -1 loadbang;
#X floatatom -366 29 5 0 0 0 - - -;
#X obj -405 29 f \$1;
#X obj -405 -1 loadbang;
#X obj -685 84 pack f f;
#X obj -545 86 pack f f;
#X obj -405 84 pack f f;
#X obj -667 54 t b f;
#X obj -526 55 t b f;
#X obj -385 55 t b f;
#X msg -684 125 send /\$1/yellow/x \$2;
#X msg -545 125 send /\$1/yellow/y \$2;
#X msg -406 125 send /\$1/yellow/z \$2;
#X obj -679 417 packOSC;
#X floatatom -502 284 5 0 0 0 - - -;
#X obj -541 284 f \$1;
#X obj -541 254 loadbang;
#X floatatom -642 282 5 0 0 0 - - -;
#X obj -681 282 f \$1;
#X obj -681 252 loadbang;
#X floatatom -362 282 5 0 0 0 - - -;
#X obj -401 282 f \$1;
#X obj -401 252 loadbang;
#X obj -681 337 pack f f;
#X obj -541 339 pack f f;
#X obj -401 337 pack f f;
#X obj -663 307 t b f;
#X obj -522 308 t b f;
#X obj -381 308 t b f;
#X msg -680 378 send /\$1/purple/x \$2;
#X msg -541 378 send /\$1/purple/y \$2;
#X msg -402 378 send /\$1/purple/z \$2;
#X obj -37 170 packOSC;
#X floatatom 140 37 5 0 0 0 - - -;
#X obj 101 37 f \$1;
#X obj 101 7 loadbang;
#X floatatom 0 35 5 0 0 0 - - -;
#X obj -39 35 f \$1;
#X obj -39 5 loadbang;
#X floatatom 280 35 5 0 0 0 - - -;
#X obj 241 35 f \$1;
#X obj 241 5 loadbang;
#X obj -39 90 pack f f;
#X obj 101 92 pack f f;
#X obj 241 90 pack f f;
#X obj -21 60 t b f;
#X obj 120 61 t b f;
#X obj 261 61 t b f;
#X msg -38 131 send /\$1/cyan/x \$2;
#X msg 101 131 send /\$1/cyan/y \$2;
#X msg 240 131 send /\$1/cyan/z \$2;
#X obj -33 423 packOSC;
#X floatatom 144 290 5 0 0 0 - - -;
#X obj 105 290 f \$1;
#X obj 105 260 loadbang;
#X floatatom 4 288 5 0 0 0 - - -;
#X obj -35 288 f \$1;
#X obj -35 258 loadbang;
#X floatatom 284 288 5 0 0 0 - - -;
#X obj 245 288 f \$1;
#X obj 245 258 loadbang;
#X obj -35 343 pack f f;
#X obj 105 345 pack f f;
#X obj 245 343 pack f f;
#X obj -17 313 t b f;
#X obj 124 314 t b f;
#X obj 265 314 t b f;
#X msg -34 384 send /\$1/green/x \$2;
#X msg 105 384 send /\$1/green/y \$2;
#X msg 244 384 send /\$1/green/z \$2;
#X obj 650 167 packOSC;
#X floatatom 827 34 5 0 0 0 - - -;
#X obj 788 34 f \$1;
#X obj 788 4 loadbang;
#X floatatom 687 32 5 0 0 0 - - -;
#X obj 648 32 f \$1;
#X obj 648 2 loadbang;
#X floatatom 967 32 5 0 0 0 - - -;
#X obj 928 32 f \$1;
#X obj 928 2 loadbang;
#X obj 648 87 pack f f;
#X obj 788 89 pack f f;
#X obj 928 87 pack f f;
#X obj 666 57 t b f;
#X obj 807 58 t b f;
#X obj 948 58 t b f;
#X obj 654 420 packOSC;
#X floatatom 831 287 5 0 0 0 - - -;
#X obj 792 287 f \$1;
#X obj 792 257 loadbang;
#X floatatom 691 285 5 0 0 0 - - -;
#X obj 652 285 f \$1;
#X obj 652 255 loadbang;
#X floatatom 971 285 5 0 0 0 - - -;
#X obj 932 285 f \$1;
#X obj 932 255 loadbang;
#X obj 652 340 pack f f;
#X obj 792 342 pack f f;
#X obj 932 340 pack f f;
#X obj 670 310 t b f;
#X obj 811 311 t b f;
#X obj 952 311 t b f;
#X msg 653 381 send /\$1/black/x \$2;
#X msg 792 381 send /\$1/black/y \$2;
#X msg 931 381 send /\$1/black/z \$2;
#X obj 1313 182 packOSC;
#X floatatom 1490 49 5 0 0 0 - - -;
#X obj 1451 49 f \$1;
#X obj 1451 19 loadbang;
#X floatatom 1350 47 5 0 0 0 - - -;
#X obj 1311 47 f \$1;
#X obj 1311 17 loadbang;
#X floatatom 1630 47 5 0 0 0 - - -;
#X obj 1591 47 f \$1;
#X obj 1591 17 loadbang;
#X obj 1311 102 pack f f;
#X obj 1451 104 pack f f;
#X obj 1591 102 pack f f;
#X obj 1329 72 t b f;
#X obj 1470 73 t b f;
#X obj 1611 73 t b f;
#X msg 1312 143 send /\$1/grey/x \$2;
#X msg 1451 143 send /\$1/grey/y \$2;
#X msg 1590 143 send /\$1/grey/z \$2;
#X obj 1317 435 packOSC;
#X floatatom 1494 302 5 0 0 0 - - -;
#X obj 1455 302 f \$1;
#X obj 1455 272 loadbang;
#X floatatom 1354 300 5 0 0 0 - - -;
#X obj 1315 300 f \$1;
#X obj 1315 270 loadbang;
#X floatatom 1634 300 5 0 0 0 - - -;
#X obj 1595 300 f \$1;
#X obj 1595 270 loadbang;
#X obj 1315 355 pack f f;
#X obj 1455 357 pack f f;
#X obj 1595 355 pack f f;
#X obj 1333 325 t b f;
#X obj 1474 326 t b f;
#X obj 1615 326 t b f;
#X msg 1316 396 send /\$1/blue/x \$2;
#X msg 1455 396 send /\$1/blue/y \$2;
#X msg 1594 396 send /\$1/blue/z \$2;
#X obj -1513 77 r sendColors;
#X obj -1328 185 s sendColors;
#X obj -1324 435 s sendColors;
#X obj -683 193 s sendColors;
#X obj -680 449 s sendColors;
#X obj -36 456 s sendColors;
#X obj -33 197 s sendColors;
#X obj 648 452 s sendColors;
#X obj 651 193 s sendColors;
#X obj 1312 464 s sendColors;
#X obj 1315 205 s sendColors;
#X msg 649 128 send /\$1/brown/x \$2;
#X msg 788 128 send /\$1/brown/y \$2;
#X msg 927 128 send /\$1/brown/z \$2;
#X connect 0 0 190 0;
#X connect 2 0 16 0;
#X connect 3 0 1 0;
#X connect 4 0 13 0;
#X connect 5 0 4 0;
#X connect 6 0 15 0;
#X connect 7 0 12 0;
#X connect 8 0 7 0;
#X connect 8 0 3 0;
#X connect 9 0 17 0;
#X connect 10 0 14 0;
#X connect 11 0 10 0;
#X connect 12 0 18 0;
#X connect 13 0 19 0;
#X connect 14 0 20 0;
#X connect 15 0 12 0;
#X connect 15 1 12 1;
#X connect 16 0 13 0;
#X connect 16 1 13 1;
#X connect 17 0 14 0;
#X connect 17 1 14 1;
#X connect 18 0 0 0;
#X connect 19 0 0 0;
#X connect 20 0 0 0;
#X connect 21 0 191 0;
#X connect 22 0 35 0;
#X connect 23 0 32 0;
#X connect 24 0 23 0;
#X connect 25 0 34 0;
#X connect 26 0 31 0;
#X connect 27 0 26 0;
#X connect 28 0 36 0;
#X connect 29 0 33 0;
#X connect 30 0 29 0;
#X connect 31 0 37 0;
#X connect 32 0 38 0;
#X connect 33 0 39 0;
#X connect 34 0 31 0;
#X connect 34 1 31 1;
#X connect 35 0 32 0;
#X connect 35 1 32 1;
#X connect 36 0 33 0;
#X connect 36 1 33 1;
#X connect 37 0 21 0;
#X connect 38 0 21 0;
#X connect 39 0 21 0;
#X connect 40 0 192 0;
#X connect 41 0 54 0;
#X connect 42 0 51 0;
#X connect 43 0 42 0;
#X connect 44 0 53 0;
#X connect 45 0 50 0;
#X connect 46 0 45 0;
#X connect 47 0 55 0;
#X connect 48 0 52 0;
#X connect 49 0 48 0;
#X connect 50 0 56 0;
#X connect 51 0 57 0;
#X connect 52 0 58 0;
#X connect 53 0 50 0;
#X connect 53 1 50 1;
#X connect 54 0 51 0;
#X connect 54 1 51 1;
#X connect 55 0 52 0;
#X connect 55 1 52 1;
#X connect 56 0 40 0;
#X connect 57 0 40 0;
#X connect 58 0 40 0;
#X connect 59 0 193 0;
#X connect 60 0 73 0;
#X connect 61 0 70 0;
#X connect 62 0 61 0;
#X connect 63 0 72 0;
#X connect 64 0 69 0;
#X connect 65 0 64 0;
#X connect 66 0 74 0;
#X connect 67 0 71 0;
#X connect 68 0 67 0;
#X connect 69 0 75 0;
#X connect 70 0 76 0;
#X connect 71 0 77 0;
#X connect 72 0 69 0;
#X connect 72 1 69 1;
#X connect 73 0 70 0;
#X connect 73 1 70 1;
#X connect 74 0 71 0;
#X connect 74 1 71 1;
#X connect 75 0 59 0;
#X connect 76 0 59 0;
#X connect 77 0 59 0;
#X connect 78 0 195 0;
#X connect 79 0 92 0;
#X connect 80 0 89 0;
#X connect 81 0 80 0;
#X connect 82 0 91 0;
#X connect 83 0 88 0;
#X connect 84 0 83 0;
#X connect 85 0 93 0;
#X connect 86 0 90 0;
#X connect 87 0 86 0;
#X connect 88 0 94 0;
#X connect 89 0 95 0;
#X connect 90 0 96 0;
#X connect 91 0 88 0;
#X connect 91 1 88 1;
#X connect 92 0 89 0;
#X connect 92 1 89 1;
#X connect 93 0 90 0;
#X connect 93 1 90 1;
#X connect 94 0 78 0;
#X connect 95 0 78 0;
#X connect 96 0 78 0;
#X connect 97 0 194 0;
#X connect 98 0 111 0;
#X connect 99 0 108 0;
#X connect 100 0 99 0;
#X connect 101 0 110 0;
#X connect 102 0 107 0;
#X connect 103 0 102 0;
#X connect 104 0 112 0;
#X connect 105 0 109 0;
#X connect 106 0 105 0;
#X connect 107 0 113 0;
#X connect 108 0 114 0;
#X connect 109 0 115 0;
#X connect 110 0 107 0;
#X connect 110 1 107 1;
#X connect 111 0 108 0;
#X connect 111 1 108 1;
#X connect 112 0 109 0;
#X connect 112 1 109 1;
#X connect 113 0 97 0;
#X connect 114 0 97 0;
#X connect 115 0 97 0;
#X connect 116 0 197 0;
#X connect 117 0 130 0;
#X connect 118 0 127 0;
#X connect 119 0 118 0;
#X connect 120 0 129 0;
#X connect 121 0 126 0;
#X connect 122 0 121 0;
#X connect 123 0 131 0;
#X connect 124 0 128 0;
#X connect 125 0 124 0;
#X connect 126 0 200 0;
#X connect 127 0 201 0;
#X connect 128 0 202 0;
#X connect 129 0 126 0;
#X connect 129 1 126 1;
#X connect 130 0 127 0;
#X connect 130 1 127 1;
#X connect 131 0 128 0;
#X connect 131 1 128 1;
#X connect 132 0 196 0;
#X connect 133 0 146 0;
#X connect 134 0 143 0;
#X connect 135 0 134 0;
#X connect 136 0 145 0;
#X connect 137 0 142 0;
#X connect 138 0 137 0;
#X connect 139 0 147 0;
#X connect 140 0 144 0;
#X connect 141 0 140 0;
#X connect 142 0 148 0;
#X connect 143 0 149 0;
#X connect 144 0 150 0;
#X connect 145 0 142 0;
#X connect 145 1 142 1;
#X connect 146 0 143 0;
#X connect 146 1 143 1;
#X connect 147 0 144 0;
#X connect 147 1 144 1;
#X connect 148 0 132 0;
#X connect 149 0 132 0;
#X connect 150 0 132 0;
#X connect 151 0 199 0;
#X connect 152 0 165 0;
#X connect 153 0 162 0;
#X connect 154 0 153 0;
#X connect 155 0 164 0;
#X connect 156 0 161 0;
#X connect 157 0 156 0;
#X connect 158 0 166 0;
#X connect 159 0 163 0;
#X connect 160 0 159 0;
#X connect 161 0 167 0;
#X connect 162 0 168 0;
#X connect 163 0 169 0;
#X connect 164 0 161 0;
#X connect 164 1 161 1;
#X connect 165 0 162 0;
#X connect 165 1 162 1;
#X connect 166 0 163 0;
#X connect 166 1 163 1;
#X connect 167 0 151 0;
#X connect 168 0 151 0;
#X connect 169 0 151 0;
#X connect 170 0 198 0;
#X connect 171 0 184 0;
#X connect 172 0 181 0;
#X connect 173 0 172 0;
#X connect 174 0 183 0;
#X connect 175 0 180 0;
#X connect 176 0 175 0;
#X connect 177 0 185 0;
#X connect 178 0 182 0;
#X connect 179 0 178 0;
#X connect 180 0 186 0;
#X connect 181 0 187 0;
#X connect 182 0 188 0;
#X connect 183 0 180 0;
#X connect 183 1 180 1;
#X connect 184 0 181 0;
#X connect 184 1 181 1;
#X connect 185 0 182 0;
#X connect 185 1 182 1;
#X connect 186 0 170 0;
#X connect 187 0 170 0;
#X connect 188 0 170 0;
#X connect 189 0 1 0;
#X connect 200 0 116 0;
#X connect 201 0 116 0;
#X connect 202 0 116 0;
