#N canvas 530 171 759 438 10;
#X obj -1328 157 packOSC;
#X obj -1328 198 udpsend 3334;
#X floatatom -1151 24 5 0 0 0 - - -;
#X msg -1527 54 connect localhost 3334;
#X obj -1190 24 f \$1;
#X obj -1190 -6 loadbang;
#X floatatom -1291 22 5 0 0 0 - - -;
#X obj -1330 22 f \$1;
#X obj -1330 -8 loadbang;
#X floatatom -1011 22 5 0 0 0 - - -;
#X obj -1050 22 f \$1;
#X obj -1050 -8 loadbang;
#X obj -1330 77 pack f f;
#X obj -1190 79 pack f f;
#X obj -1050 77 pack f f;
#X obj -1312 47 t b f;
#X obj -1171 48 t b f;
#X obj -1030 48 t b f;
#X msg -1329 118 send /\$1/sliders/x \$2;
#X msg -1190 118 send /\$1/sliders/y \$2;
#X msg -1051 118 send /\$1/sliders/z \$2;
#X connect 0 0 1 0;
#X connect 2 0 16 0;
#X connect 3 0 1 0;
#X connect 4 0 13 0;
#X connect 5 0 4 0;
#X connect 6 0 15 0;
#X connect 7 0 12 0;
#X connect 8 0 7 0;
#X connect 8 0 3 0;
#X connect 9 0 17 0;
#X connect 10 0 14 0;
#X connect 11 0 10 0;
#X connect 12 0 18 0;
#X connect 13 0 19 0;
#X connect 14 0 20 0;
#X connect 15 0 12 0;
#X connect 15 1 12 1;
#X connect 16 0 13 0;
#X connect 16 1 13 1;
#X connect 17 0 14 0;
#X connect 17 1 14 1;
#X connect 18 0 0 0;
#X connect 19 0 0 0;
#X connect 20 0 0 0;
