#N canvas -8 -8 1366 686 10;
#X declare -lib mrpeach;
#X obj 66 103 unpackOSC;
#X obj 42 30 import mrpeach;
#X obj 66 79 udpreceive 3334;
#N canvas 840 233 450 301 maxValOut 0;
#X floatatom 70 158 5 0 0 0 - - -;
#X floatatom 151 157 5 0 0 0 - - -;
#X floatatom 236 155 5 0 0 0 - - -;
#X floatatom 75 52 5 0 0 0 - - -;
#X floatatom 220 50 5 0 0 0 - - -;
#X obj 75 79 expr $f1 \; $f2 \; if ($f1 > $f2 \, $f1 \, $f2) \;;
#X obj 119 184 max;
#X floatatom 123 212 5 0 0 0 - - -;
#X msg 185 26 \$1;
#X obj 113 260 outlet;
#X obj 32 10 inlet;
#X msg 319 70 0;
#X obj 313 49 loadbang;
#X obj 251 14 inlet;
#X connect 0 0 6 0;
#X connect 1 0 6 1;
#X connect 3 0 5 0;
#X connect 4 0 5 1;
#X connect 5 0 0 0;
#X connect 5 1 1 0;
#X connect 5 2 2 0;
#X connect 6 0 7 0;
#X connect 7 0 8 0;
#X connect 7 0 9 0;
#X connect 8 0 4 0;
#X connect 10 0 3 0;
#X connect 11 0 4 0;
#X connect 11 0 3 0;
#X connect 11 0 7 0;
#X connect 12 0 11 0;
#X connect 13 0 11 0;
#X restore -92 574 pd maxValOut;
#N canvas 840 233 450 301 minValOut 0;
#X floatatom 70 158 5 0 0 0 - - -;
#X floatatom 151 157 5 0 0 0 - - -;
#X floatatom 236 155 5 0 0 0 - - -;
#X floatatom 75 52 5 0 0 0 - - -;
#X floatatom 220 50 5 0 0 0 - - -;
#X floatatom 123 212 5 0 0 0 - - -;
#X msg 185 26 \$1;
#X obj 113 260 outlet;
#X obj 32 10 inlet;
#X msg 319 70 0;
#X obj 313 49 loadbang;
#X obj 251 14 inlet;
#X obj 75 79 expr $f1 \; $f2 \; if ($f1 < $f2 \, $f1 \, $f2) \;;
#X obj 119 184 min;
#X connect 0 0 13 0;
#X connect 1 0 13 1;
#X connect 3 0 12 0;
#X connect 4 0 12 1;
#X connect 5 0 6 0;
#X connect 5 0 7 0;
#X connect 6 0 4 0;
#X connect 8 0 3 0;
#X connect 9 0 4 0;
#X connect 9 0 3 0;
#X connect 9 0 5 0;
#X connect 10 0 9 0;
#X connect 11 0 9 0;
#X connect 12 0 0 0;
#X connect 12 1 1 0;
#X connect 12 2 2 0;
#X connect 13 0 5 0;
#X restore 3 565 pd minValOut;
#X obj -23 551 bng 15 250 50 0 empty empty empty 17 7 0 10 -262144
-1 -1;
#X obj 68 550 bng 15 250 50 0 empty empty empty 17 7 0 10 -262144 -1
-1;
#X floatatom -92 609 5 0 0 0 - - -;
#X floatatom -1 610 5 0 0 0 - - -;
#X obj 540 154 vsl 100 200 0 100 0 0 empty 20-slider empty 0 -9 0 4
-4034 -1 -1 0 1;
#X obj 657 154 vsl 100 200 0 100 0 0 empty 13-slider empty 0 -9 0 4
-258113 -1 -1 0 1;
#X obj 772 154 vsl 100 200 0 100 0 0 empty 21-slider empty 0 -9 0 4
-257985 -1 -1 0 1;
#X obj 889 154 vsl 100 200 0 100 0 0 empty 22-slider empty 0 -9 0 4
-4160 -1 -1 0 1;
#X obj 538 376 vsl 100 200 0 100 0 0 empty 23-slider empty 0 -9 0 4
-159808 -1 -1 0 1;
#X obj 655 376 vsl 100 200 0 100 0 0 empty 24-slider empty 0 -9 0 4
-83269 -1 -1 0 1;
#X obj 770 376 vsl 100 200 0 100 0 0 empty 25-slider empty 0 -9 0 4
-162280 -1 -1 0 1;
#X obj 887 376 vsl 100 200 0 100 0 0 empty 26-slider empty 0 -9 0 4
-204786 -1 -1 0 1;
#X floatatom 1032 262 5 0 0 0 - - -;
#X obj 1032 227 random 100;
#X obj 1032 133 bng 15 250 50 0 empty empty empty 17 7 0 10 -262144
-1 -1;
#X floatatom 1034 322 5 0 0 0 - - -;
#X obj 1032 190 metro 1000;
#X floatatom 1123 262 5 0 0 0 - - -;
#X obj 1123 227 random 100;
#X obj 1123 133 bng 15 250 50 0 empty empty empty 17 7 0 10 -262144
-1 -1;
#X obj 1123 190 metro 1000;
#X floatatom 1232 258 5 0 0 0 - - -;
#X obj 1232 223 random 100;
#X obj 1232 129 bng 15 250 50 0 empty empty empty 17 7 0 10 -262144
-1 -1;
#X obj 1232 186 metro 1000;
#X floatatom 1323 258 5 0 0 0 - - -;
#X obj 1323 223 random 100;
#X obj 1323 129 bng 15 250 50 0 empty empty empty 17 7 0 10 -262144
-1 -1;
#X obj 1323 186 metro 1000;
#X floatatom 1049 511 5 0 0 0 - - -;
#X obj 1049 476 random 100;
#X obj 1046 410 bng 15 250 50 0 empty empty empty 17 7 0 10 -262144
-1 -1;
#X obj 1049 439 metro 1000;
#X floatatom 1140 511 5 0 0 0 - - -;
#X obj 1140 476 random 100;
#X obj 1140 407 bng 15 250 50 0 empty empty empty 17 7 0 10 -262144
-1 -1;
#X obj 1140 439 metro 1000;
#X floatatom 1249 507 5 0 0 0 - - -;
#X obj 1249 472 random 100;
#X obj 1250 405 bng 15 250 50 0 empty empty empty 17 7 0 10 -262144
-1 -1;
#X obj 1249 435 metro 1000;
#X floatatom 1340 507 5 0 0 0 - - -;
#X obj 1340 472 random 100;
#X obj 1337 407 bng 15 250 50 0 empty empty empty 17 7 0 10 -262144
-1 -1;
#X obj 1340 435 metro 1000;
#X msg 1040 158 0;
#X msg 1129 158 0;
#X msg 1241 157 0;
#X msg 1331 157 0;
#X msg 1065 414 0;
#X msg 1161 408 0;
#X msg 1272 407 0;
#X msg 1362 408 0;
#X obj 1757 181 vsl 100 200 0 100 0 0 empty 27-slider empty 0 -9 0
4 -260097 -1 -1 0 1;
#X obj 1753 403 vsl 100 200 0 100 0 0 empty 28-slider empty 0 -9 0
4 -159808 -1 -1 0 1;
#X floatatom 1440 254 5 0 0 0 - - -;
#X obj 1440 219 random 100;
#X obj 1440 125 bng 15 250 50 0 empty empty empty 17 7 0 10 -262144
-1 -1;
#X obj 1440 182 metro 1000;
#X floatatom 1457 503 5 0 0 0 - - -;
#X obj 1457 468 random 100;
#X obj 1454 403 bng 15 250 50 0 empty empty empty 17 7 0 10 -262144
-1 -1;
#X obj 1457 431 metro 1000;
#X msg 1448 153 0;
#X msg 1479 404 0;
#X obj 1039 368 midiSender 5;
#X obj 1072 341 *;
#X obj 1081 319 tgl 15 0 empty empty empty 17 7 0 10 -262144 -1 -1
0 1;
#X floatatom 1122 319 5 0 0 0 - - -;
#X obj 1160 338 *;
#X obj 1169 316 tgl 15 0 empty empty empty 17 7 0 10 -262144 -1 -1
0 1;
#X floatatom 1232 319 5 0 0 0 - - -;
#X obj 1270 338 *;
#X obj 1279 316 tgl 15 0 empty empty empty 17 7 0 10 -262144 -1 -1
0 1;
#X floatatom 1338 319 5 0 0 0 - - -;
#X obj 1374 340 *;
#X obj 1385 316 tgl 15 0 empty empty empty 17 7 0 10 -262144 -1 -1
0 1;
#X floatatom 1447 313 5 0 0 0 - - -;
#X floatatom 1052 565 5 0 0 0 - - -;
#X obj 1090 584 *;
#X obj 1099 562 tgl 15 0 empty empty empty 17 7 0 10 -262144 -1 -1
0 1;
#X floatatom 1141 564 5 0 0 0 - - -;
#X obj 1179 583 *;
#X obj 1188 561 tgl 15 0 empty empty empty 17 7 0 10 -262144 -1 -1
0 1;
#X floatatom 1247 563 5 0 0 0 - - -;
#X obj 1285 582 *;
#X obj 1294 560 tgl 15 0 empty empty empty 17 7 0 10 -262144 -1 -1
0 1;
#X floatatom 1337 561 5 0 0 0 - - -;
#X obj 1375 580 *;
#X obj 1384 558 tgl 15 0 empty empty empty 17 7 0 10 -262144 -1 -1
0 1;
#X floatatom 1457 558 5 0 0 0 - - -;
#X msg 1516 310 0;
#X msg 1488 310 1;
#X obj 1460 603 midiSenderSlider 10;
#X obj 1460 364 midiSenderSlider 9;
#X obj 1467 338 spigot;
#X msg 1540 555 0;
#X msg 1512 555 1;
#X obj 1491 583 spigot;
#X obj 1880 179 vsl 100 200 100 0 0 0 empty 29-slider empty 0 -9 0
4 -228856 -1 -1 0 1;
#X obj 1876 401 vsl 100 200 0 100 0 0 empty 30-slider empty 0 -9 0
4 -45076 -1 -1 0 1;
#X floatatom 1573 252 5 0 0 0 - - -;
#X obj 1573 217 random 100;
#X obj 1573 123 bng 15 250 50 0 empty empty empty 17 7 0 10 -262144
-1 -1;
#X obj 1573 180 metro 1000;
#X floatatom 1590 501 5 0 0 0 - - -;
#X obj 1590 466 random 100;
#X obj 1587 401 bng 15 250 50 0 empty empty empty 17 7 0 10 -262144
-1 -1;
#X obj 1590 429 metro 1000;
#X msg 1581 151 0;
#X msg 1612 402 0;
#X floatatom 1580 311 5 0 0 0 - - -;
#X floatatom 1590 556 5 0 0 0 - - -;
#X msg 1649 308 0;
#X msg 1621 308 1;
#X obj 1600 336 spigot;
#X msg 1673 553 0;
#X msg 1645 553 1;
#X obj 1624 581 spigot;
#X obj 1593 362 midiSenderSlider 11;
#X obj 1592 601 midiSenderSlider 12;
#X obj 1049 608 midiSender 1;
#X obj -185 605 midiSender 1;
#X obj 1137 607 midiSender 2;
#X obj 1246 606 midiSender 3;
#X obj 1343 607 midiSender 4;
#X obj 1142 370 midiSender 6;
#X obj 1253 365 midiSender 7;
#X obj 1365 365 midiSender 8;
#X obj 1069 23 bng 15 250 50 0 empty empty empty 17 7 0 10 -262144
-1 -1;
#X obj 1042 24 bng 15 250 50 0 empty empty empty 17 7 0 10 -262144
-1 -1;
#X obj 1433 54 bng 15 250 50 0 empty empty empty 17 7 0 10 -262144
-1 -1;
#X obj 1549 65 bng 15 250 50 0 empty empty empty 17 7 0 10 -262144
-1 -1;
#X obj 250 391 r nOSCMsg;
#X obj 66 132 s nOSCMsg;
#X obj -141 204 vsl 45 128 0 127 0 0 empty blueSlider empty 0 -9 0
10 -4160 -1 -1 0 1;
#X obj -89 204 vsl 45 128 0 127 0 0 empty redSlider empty 0 -9 0 10
-258113 -1 -1 0 1;
#X obj -37 204 vsl 45 128 0 127 0 0 empty greenSlider empty 0 -9 0
10 -4034 -1 -1 0 1;
#X obj 15 204 vsl 45 128 0 127 0 0 empty yellowSlider empty 0 -9 0
10 -257985 -1 -1 0 1;
#X obj -141 343 vsl 45 128 0 127 0 0 empty purpleSlider empty 0 -9
0 10 -159808 -1 -1 0 1;
#X obj -89 343 vsl 45 128 0 127 0 0 empty orangeSlider empty 0 -9 0
10 -260097 -1 -1 0 1;
#X obj -37 343 vsl 45 128 0 127 0 0 empty brownSlider empty 0 -9 0
10 -83269 -1 -1 0 1;
#X obj 15 343 vsl 45 128 0 127 0 0 empty cyanSlider empty 0 -9 0 10
-4032 -1 -1 0 1;
#X obj 66 204 vsl 45 128 0 127 0 0 empty blackSlider empty 0 -9 0 10
-33289 -1 -1 0 1;
#X obj 66 343 vsl 45 128 0 127 0 0 empty greySlider empty 0 -9 0 10
-162280 -1 -1 0 1;
#X obj 157 332 colorsHub;
#X obj 250 422 many/instances 2 ../nRouteOsc;
#X obj 250 468 many/instances 2 ../oscNodeSimulator;
#X obj -189 566 averageAcc 20;
#X obj 1031 291 averageAcc 22;
#X obj 1122 291 averageAcc 23;
#X obj 1231 287 averageAcc 24;
#X obj 1322 287 averageAcc 25;
#X obj 1048 540 averageAcc 26;
#X obj 1139 540 averageAcc 21;
#X obj 1248 536 averageAcc 20;
#X obj 1339 536 averageAcc 13;
#X obj 1439 283 averageAcc 27;
#X obj 1456 532 averageAcc 28;
#X obj 1572 281 averageAcc 29;
#X obj 1589 530 averageAcc 30;
#X connect 0 0 139 0;
#X connect 2 0 0 0;
#X connect 3 0 7 0;
#X connect 4 0 8 0;
#X connect 5 0 3 1;
#X connect 6 0 4 1;
#X connect 17 0 154 0;
#X connect 17 0 154 1;
#X connect 17 0 154 2;
#X connect 18 0 17 0;
#X connect 19 0 21 0;
#X connect 20 0 71 0;
#X connect 21 0 18 0;
#X connect 22 0 155 0;
#X connect 22 0 155 1;
#X connect 22 0 155 2;
#X connect 23 0 22 0;
#X connect 24 0 25 0;
#X connect 25 0 23 0;
#X connect 26 0 156 0;
#X connect 26 0 156 1;
#X connect 26 0 156 2;
#X connect 27 0 26 0;
#X connect 28 0 29 0;
#X connect 29 0 27 0;
#X connect 30 0 157 0;
#X connect 30 0 157 1;
#X connect 30 0 157 2;
#X connect 31 0 30 0;
#X connect 32 0 33 0;
#X connect 33 0 31 0;
#X connect 34 0 158 0;
#X connect 34 0 158 1;
#X connect 34 0 158 2;
#X connect 35 0 34 0;
#X connect 36 0 37 0;
#X connect 37 0 35 0;
#X connect 38 0 159 0;
#X connect 38 0 159 1;
#X connect 38 0 159 2;
#X connect 39 0 38 0;
#X connect 40 0 41 0;
#X connect 41 0 39 0;
#X connect 42 0 160 0;
#X connect 42 0 160 1;
#X connect 42 0 160 2;
#X connect 43 0 42 0;
#X connect 44 0 45 0;
#X connect 45 0 43 0;
#X connect 46 0 161 0;
#X connect 46 0 161 1;
#X connect 46 0 161 2;
#X connect 47 0 46 0;
#X connect 48 0 49 0;
#X connect 49 0 47 0;
#X connect 50 0 21 0;
#X connect 51 0 25 0;
#X connect 52 0 29 0;
#X connect 53 0 33 0;
#X connect 54 0 37 0;
#X connect 55 0 41 0;
#X connect 56 0 45 0;
#X connect 57 0 49 0;
#X connect 60 0 162 0;
#X connect 60 0 162 1;
#X connect 60 0 162 2;
#X connect 61 0 60 0;
#X connect 62 0 63 0;
#X connect 63 0 61 0;
#X connect 64 0 163 0;
#X connect 64 0 163 1;
#X connect 64 0 163 2;
#X connect 65 0 64 0;
#X connect 66 0 67 0;
#X connect 67 0 65 0;
#X connect 68 0 63 0;
#X connect 69 0 67 0;
#X connect 71 0 70 0;
#X connect 72 0 71 1;
#X connect 73 0 74 0;
#X connect 74 0 131 0;
#X connect 75 0 74 1;
#X connect 76 0 77 0;
#X connect 77 0 132 0;
#X connect 78 0 77 1;
#X connect 79 0 80 0;
#X connect 80 0 133 0;
#X connect 81 0 80 1;
#X connect 82 0 100 0;
#X connect 83 0 84 0;
#X connect 84 0 126 0;
#X connect 85 0 84 1;
#X connect 86 0 87 0;
#X connect 87 0 128 0;
#X connect 88 0 87 1;
#X connect 89 0 90 0;
#X connect 90 0 129 0;
#X connect 91 0 90 1;
#X connect 92 0 93 0;
#X connect 93 0 130 0;
#X connect 94 0 93 1;
#X connect 95 0 103 0;
#X connect 96 0 100 1;
#X connect 97 0 100 1;
#X connect 100 0 99 0;
#X connect 101 0 103 1;
#X connect 102 0 103 1;
#X connect 103 0 98 0;
#X connect 106 0 164 0;
#X connect 106 0 164 1;
#X connect 106 0 164 2;
#X connect 107 0 106 0;
#X connect 108 0 109 0;
#X connect 109 0 107 0;
#X connect 110 0 165 0;
#X connect 110 0 165 1;
#X connect 110 0 165 2;
#X connect 111 0 110 0;
#X connect 112 0 113 0;
#X connect 113 0 111 0;
#X connect 114 0 109 0;
#X connect 115 0 113 0;
#X connect 116 0 120 0;
#X connect 117 0 123 0;
#X connect 118 0 120 1;
#X connect 119 0 120 1;
#X connect 120 0 124 0;
#X connect 121 0 123 1;
#X connect 122 0 123 1;
#X connect 123 0 125 0;
#X connect 134 0 50 0;
#X connect 134 0 51 0;
#X connect 134 0 52 0;
#X connect 134 0 53 0;
#X connect 134 0 57 0;
#X connect 134 0 56 0;
#X connect 134 0 55 0;
#X connect 134 0 54 0;
#X connect 135 0 19 0;
#X connect 135 0 24 0;
#X connect 135 0 28 0;
#X connect 135 0 32 0;
#X connect 135 0 36 0;
#X connect 135 0 40 0;
#X connect 135 0 44 0;
#X connect 135 0 48 0;
#X connect 136 0 62 0;
#X connect 136 0 108 0;
#X connect 136 0 66 0;
#X connect 136 0 112 0;
#X connect 137 0 68 0;
#X connect 137 0 114 0;
#X connect 137 0 69 0;
#X connect 137 0 115 0;
#X connect 138 0 151 0;
#X connect 153 0 127 0;
#X connect 154 0 20 0;
#X connect 155 0 73 0;
#X connect 156 0 76 0;
#X connect 157 0 79 0;
#X connect 158 0 83 0;
#X connect 159 0 86 0;
#X connect 160 0 89 0;
#X connect 161 0 92 0;
#X connect 162 0 82 0;
#X connect 163 0 95 0;
#X connect 164 0 116 0;
#X connect 165 0 117 0;
