#N canvas 1 1 1348 668 10;
#X declare -lib mrpeach;
#X obj 66 103 unpackOSC;
#X obj 42 30 import mrpeach;
#X floatatom 36 239 5 0 0 0 - - -;
#X floatatom 69 239 5 0 0 0 - - -;
#X floatatom 102 238 5 0 0 0 - - -;
#X obj 66 79 udpreceive 3334;
#X obj 292 113 split;
#X msg 300 47 /sliders/a 45;
#X obj 36 196 routeOSC /x /y /z;
#X floatatom 187 239 5 0 0 0 - - -;
#X floatatom 220 239 5 0 0 0 - - -;
#X floatatom 253 239 5 0 0 0 - - -;
#X obj 187 198 routeOSC /x /y /z;
#X obj 190 169 routeOSC /13/sliders;
#X obj 36 167 routeOSC /20/sliders;
#N canvas 840 233 450 301 maxValOut 0;
#X floatatom 70 158 5 0 0 0 - - -;
#X floatatom 151 157 5 0 0 0 - - -;
#X floatatom 236 155 5 0 0 0 - - -;
#X floatatom 75 52 5 0 0 0 - - -;
#X floatatom 220 50 5 0 0 0 - - -;
#X obj 75 79 expr $f1 \; $f2 \; if ($f1 > $f2 \, $f1 \, $f2) \;;
#X obj 119 184 max;
#X floatatom 123 212 5 0 0 0 - - -;
#X msg 185 26 \$1;
#X obj 113 260 outlet;
#X obj 32 10 inlet;
#X msg 319 70 0;
#X obj 313 49 loadbang;
#X obj 251 14 inlet;
#X connect 0 0 6 0;
#X connect 1 0 6 1;
#X connect 3 0 5 0;
#X connect 4 0 5 1;
#X connect 5 0 0 0;
#X connect 5 1 1 0;
#X connect 5 2 2 0;
#X connect 6 0 7 0;
#X connect 7 0 8 0;
#X connect 7 0 9 0;
#X connect 8 0 4 0;
#X connect 10 0 3 0;
#X connect 11 0 4 0;
#X connect 11 0 3 0;
#X connect 11 0 7 0;
#X connect 12 0 11 0;
#X connect 13 0 11 0;
#X restore -92 574 pd maxValOut;
#N canvas 840 233 450 301 minValOut 0;
#X floatatom 70 158 5 0 0 0 - - -;
#X floatatom 151 157 5 0 0 0 - - -;
#X floatatom 236 155 5 0 0 0 - - -;
#X floatatom 75 52 5 0 0 0 - - -;
#X floatatom 220 50 5 0 0 0 - - -;
#X floatatom 123 212 5 0 0 0 - - -;
#X msg 185 26 \$1;
#X obj 113 260 outlet;
#X obj 32 10 inlet;
#X msg 319 70 0;
#X obj 313 49 loadbang;
#X obj 251 14 inlet;
#X obj 75 79 expr $f1 \; $f2 \; if ($f1 < $f2 \, $f1 \, $f2) \;;
#X obj 119 184 min;
#X connect 0 0 13 0;
#X connect 1 0 13 1;
#X connect 3 0 12 0;
#X connect 4 0 12 1;
#X connect 5 0 6 0;
#X connect 5 0 7 0;
#X connect 6 0 4 0;
#X connect 8 0 3 0;
#X connect 9 0 4 0;
#X connect 9 0 3 0;
#X connect 9 0 5 0;
#X connect 10 0 9 0;
#X connect 11 0 9 0;
#X connect 12 0 0 0;
#X connect 12 1 1 0;
#X connect 12 2 2 0;
#X connect 13 0 5 0;
#X restore 3 565 pd minValOut;
#X obj -23 551 bng 15 250 50 0 empty empty empty 17 7 0 10 -262144
-1 -1;
#X obj 68 550 bng 15 250 50 0 empty empty empty 17 7 0 10 -262144 -1
-1;
#X floatatom -92 609 5 0 0 0 - - -;
#X floatatom -1 610 5 0 0 0 - - -;
#X obj 526 164 vsl 100 200 0 100 0 0 empty 20-slider empty 0 -9 0 4
-4034 -1 -1 17014 1;
#X obj 36 272 averageAcc 20;
#X obj 643 164 vsl 100 200 0 100 0 0 empty 13-slider empty 0 -9 0 4
-258113 -1 -1 8455 1;
#X obj 758 164 vsl 100 200 0 100 0 0 empty 21-slider empty 0 -9 0 4
-257985 -1 -1 3034 1;
#X obj 875 164 vsl 100 200 0 100 0 0 empty 22-slider empty 0 -9 0 4
-4160 -1 -1 19096 1;
#X obj 524 386 vsl 100 200 0 100 0 0 empty 23-slider empty 0 -9 0 4
-159808 -1 -1 13851 1;
#X obj 641 386 vsl 100 200 0 100 0 0 empty 24-slider empty 0 -9 0 4
-83269 -1 -1 19900 1;
#X obj 756 386 vsl 100 200 0 100 0 0 empty 25-slider empty 0 -9 0 4
-162280 -1 -1 7828 1;
#X obj 873 386 vsl 100 200 0 100 0 0 empty 26-slider empty 0 -9 0 4
-204786 -1 -1 1969 1;
#X floatatom 1032 262 5 0 0 0 - - -;
#X obj 1031 291 averageAcc 22;
#X obj 1032 227 random 100;
#X obj 1032 133 bng 15 250 50 0 empty empty empty 17 7 0 10 -262144
-1 -1;
#X floatatom 1034 322 5 0 0 0 - - -;
#X obj 1032 190 metro 1000;
#X floatatom 1123 262 5 0 0 0 - - -;
#X obj 1123 227 random 100;
#X obj 1123 133 bng 15 250 50 0 empty empty empty 17 7 0 10 -262144
-1 -1;
#X obj 1123 190 metro 1000;
#X obj 1122 291 averageAcc 23;
#X floatatom 1232 258 5 0 0 0 - - -;
#X obj 1232 223 random 100;
#X obj 1232 129 bng 15 250 50 0 empty empty empty 17 7 0 10 -262144
-1 -1;
#X obj 1232 186 metro 1000;
#X floatatom 1323 258 5 0 0 0 - - -;
#X obj 1323 223 random 100;
#X obj 1323 129 bng 15 250 50 0 empty empty empty 17 7 0 10 -262144
-1 -1;
#X obj 1323 186 metro 1000;
#X floatatom 1049 511 5 0 0 0 - - -;
#X obj 1049 476 random 100;
#X obj 1046 410 bng 15 250 50 0 empty empty empty 17 7 0 10 -262144
-1 -1;
#X obj 1049 439 metro 1000;
#X floatatom 1140 511 5 0 0 0 - - -;
#X obj 1140 476 random 100;
#X obj 1140 407 bng 15 250 50 0 empty empty empty 17 7 0 10 -262144
-1 -1;
#X obj 1140 439 metro 1000;
#X floatatom 1249 507 5 0 0 0 - - -;
#X obj 1249 472 random 100;
#X obj 1250 405 bng 15 250 50 0 empty empty empty 17 7 0 10 -262144
-1 -1;
#X obj 1249 435 metro 1000;
#X floatatom 1340 507 5 0 0 0 - - -;
#X obj 1340 472 random 100;
#X obj 1337 407 bng 15 250 50 0 empty empty empty 17 7 0 10 -262144
-1 -1;
#X obj 1340 435 metro 1000;
#X obj 1231 287 averageAcc 24;
#X obj 1322 287 averageAcc 25;
#X obj 1048 540 averageAcc 26;
#X obj 1139 540 averageAcc 21;
#X obj 1248 536 averageAcc 20;
#X obj 1339 536 averageAcc 13;
#X obj 179 289 averageAcc 15;
#X msg 1040 158 0;
#X msg 1129 158 0;
#X msg 1241 157 0;
#X msg 1331 157 0;
#X msg 1065 414 0;
#X msg 1161 408 0;
#X msg 1272 407 0;
#X msg 1362 408 0;
#X obj 1757 181 vsl 100 200 0 100 0 0 empty 27-slider empty 0 -9 0
4 -260097 -1 -1 19736 1;
#X obj 1753 403 vsl 100 200 0 100 0 0 empty 28-slider empty 0 -9 0
4 -159808 -1 -1 10957 1;
#X floatatom 1440 254 5 0 0 0 - - -;
#X obj 1440 219 random 100;
#X obj 1440 125 bng 15 250 50 0 empty empty empty 17 7 0 10 -262144
-1 -1;
#X obj 1440 182 metro 1000;
#X floatatom 1457 503 5 0 0 0 - - -;
#X obj 1457 468 random 100;
#X obj 1454 403 bng 15 250 50 0 empty empty empty 17 7 0 10 -262144
-1 -1;
#X obj 1457 431 metro 1000;
#X msg 1448 153 0;
#X msg 1479 404 0;
#X obj 1439 283 averageAcc 27;
#X obj 1456 532 averageAcc 28;
#X obj 1039 368 midiSender 5;
#X obj 1072 341 *;
#X obj 1081 319 tgl 15 0 empty empty empty 17 7 0 10 -262144 -1 -1
1 1;
#X floatatom 1122 319 5 0 0 0 - - -;
#X obj 1160 338 *;
#X obj 1169 316 tgl 15 0 empty empty empty 17 7 0 10 -262144 -1 -1
1 1;
#X floatatom 1232 319 5 0 0 0 - - -;
#X obj 1270 338 *;
#X obj 1279 316 tgl 15 0 empty empty empty 17 7 0 10 -262144 -1 -1
1 1;
#X floatatom 1338 319 5 0 0 0 - - -;
#X obj 1374 340 *;
#X obj 1385 316 tgl 15 0 empty empty empty 17 7 0 10 -262144 -1 -1
1 1;
#X floatatom 1447 313 5 0 0 0 - - -;
#X floatatom 1052 565 5 0 0 0 - - -;
#X obj 1090 584 *;
#X obj 1099 562 tgl 15 0 empty empty empty 17 7 0 10 -262144 -1 -1
1 1;
#X floatatom 1141 564 5 0 0 0 - - -;
#X obj 1179 583 *;
#X obj 1188 561 tgl 15 0 empty empty empty 17 7 0 10 -262144 -1 -1
1 1;
#X floatatom 1247 563 5 0 0 0 - - -;
#X obj 1285 582 *;
#X obj 1294 560 tgl 15 0 empty empty empty 17 7 0 10 -262144 -1 -1
1 1;
#X floatatom 1337 561 5 0 0 0 - - -;
#X obj 1375 580 *;
#X obj 1384 558 tgl 15 0 empty empty empty 17 7 0 10 -262144 -1 -1
1 1;
#X floatatom 1457 558 5 0 0 0 - - -;
#X msg 1516 310 0;
#X msg 1488 310 1;
#X obj 1460 603 midiSenderSlider 10;
#X obj 1460 364 midiSenderSlider 9;
#X obj 1467 338 spigot;
#X msg 1540 555 0;
#X msg 1512 555 1;
#X obj 1491 583 spigot;
#X obj 1880 179 vsl 100 200 100 0 0 0 empty 29-slider empty 0 -9 0
4 -228856 -1 -1 11645 1;
#X obj 1876 401 vsl 100 200 0 100 0 0 empty 30-slider empty 0 -9 0
4 -45076 -1 -1 692 1;
#X floatatom 1573 252 5 0 0 0 - - -;
#X obj 1573 217 random 100;
#X obj 1573 123 bng 15 250 50 0 empty empty empty 17 7 0 10 -262144
-1 -1;
#X obj 1573 180 metro 1000;
#X floatatom 1590 501 5 0 0 0 - - -;
#X obj 1590 466 random 100;
#X obj 1587 401 bng 15 250 50 0 empty empty empty 17 7 0 10 -262144
-1 -1;
#X obj 1590 429 metro 1000;
#X msg 1581 151 0;
#X msg 1612 402 0;
#X floatatom 1580 311 5 0 0 0 - - -;
#X floatatom 1590 556 5 0 0 0 - - -;
#X msg 1649 308 0;
#X msg 1621 308 1;
#X obj 1600 336 spigot;
#X msg 1673 553 0;
#X msg 1645 553 1;
#X obj 1624 581 spigot;
#X obj 1572 281 averageAcc 29;
#X obj 1589 530 averageAcc 30;
#X obj 1593 362 midiSenderSlider 11;
#X obj 1592 601 midiSenderSlider 12;
#X obj 1049 608 midiSender 1;
#X obj 183 323 midiSender 2;
#X obj 33 321 midiSender 1;
#X obj 1137 607 midiSender 2;
#X obj 1246 606 midiSender 3;
#X obj 1343 607 midiSender 4;
#X obj 1142 370 midiSender 6;
#X obj 1253 365 midiSender 7;
#X obj 1365 365 midiSender 8;
#X obj 1069 23 bng 15 250 50 0 empty empty empty 17 7 0 10 -262144
-1 -1;
#X obj 1042 24 bng 15 250 50 0 empty empty empty 17 7 0 10 -262144
-1 -1;
#X obj 1433 54 bng 15 250 50 0 empty empty empty 17 7 0 10 -262144
-1 -1;
#X obj 1549 65 bng 15 250 50 0 empty empty empty 17 7 0 10 -262144
-1 -1;
#X connect 2 0 22 0;
#X connect 3 0 22 1;
#X connect 4 0 22 2;
#X connect 5 0 0 0;
#X connect 8 0 2 0;
#X connect 8 1 3 0;
#X connect 8 2 4 0;
#X connect 12 0 9 0;
#X connect 12 1 10 0;
#X connect 12 2 11 0;
#X connect 13 0 12 0;
#X connect 14 0 8 0;
#X connect 15 0 19 0;
#X connect 16 0 20 0;
#X connect 17 0 15 1;
#X connect 18 0 16 1;
#X connect 22 0 154 0;
#X connect 30 0 31 0;
#X connect 30 0 31 1;
#X connect 30 0 31 2;
#X connect 31 0 34 0;
#X connect 32 0 30 0;
#X connect 33 0 35 0;
#X connect 34 0 95 0;
#X connect 35 0 32 0;
#X connect 36 0 40 0;
#X connect 36 0 40 1;
#X connect 36 0 40 2;
#X connect 37 0 36 0;
#X connect 38 0 39 0;
#X connect 39 0 37 0;
#X connect 40 0 97 0;
#X connect 41 0 65 0;
#X connect 41 0 65 1;
#X connect 41 0 65 2;
#X connect 42 0 41 0;
#X connect 43 0 44 0;
#X connect 44 0 42 0;
#X connect 45 0 66 0;
#X connect 45 0 66 1;
#X connect 45 0 66 2;
#X connect 46 0 45 0;
#X connect 47 0 48 0;
#X connect 48 0 46 0;
#X connect 49 0 67 0;
#X connect 49 0 67 1;
#X connect 49 0 67 2;
#X connect 50 0 49 0;
#X connect 51 0 52 0;
#X connect 52 0 50 0;
#X connect 53 0 68 0;
#X connect 53 0 68 1;
#X connect 53 0 68 2;
#X connect 54 0 53 0;
#X connect 55 0 56 0;
#X connect 56 0 54 0;
#X connect 57 0 69 0;
#X connect 57 0 69 1;
#X connect 57 0 69 2;
#X connect 58 0 57 0;
#X connect 59 0 60 0;
#X connect 60 0 58 0;
#X connect 61 0 70 0;
#X connect 61 0 70 1;
#X connect 61 0 70 2;
#X connect 62 0 61 0;
#X connect 63 0 64 0;
#X connect 64 0 62 0;
#X connect 65 0 100 0;
#X connect 66 0 103 0;
#X connect 67 0 107 0;
#X connect 68 0 110 0;
#X connect 69 0 113 0;
#X connect 70 0 116 0;
#X connect 71 0 153 0;
#X connect 72 0 35 0;
#X connect 73 0 39 0;
#X connect 74 0 44 0;
#X connect 75 0 48 0;
#X connect 76 0 52 0;
#X connect 77 0 56 0;
#X connect 78 0 60 0;
#X connect 79 0 64 0;
#X connect 82 0 92 0;
#X connect 82 0 92 1;
#X connect 82 0 92 2;
#X connect 83 0 82 0;
#X connect 84 0 85 0;
#X connect 85 0 83 0;
#X connect 86 0 93 0;
#X connect 86 0 93 1;
#X connect 86 0 93 2;
#X connect 87 0 86 0;
#X connect 88 0 89 0;
#X connect 89 0 87 0;
#X connect 90 0 85 0;
#X connect 91 0 89 0;
#X connect 92 0 106 0;
#X connect 93 0 119 0;
#X connect 95 0 94 0;
#X connect 96 0 95 1;
#X connect 97 0 98 0;
#X connect 98 0 158 0;
#X connect 99 0 98 1;
#X connect 100 0 101 0;
#X connect 101 0 159 0;
#X connect 102 0 101 1;
#X connect 103 0 104 0;
#X connect 104 0 160 0;
#X connect 105 0 104 1;
#X connect 106 0 124 0;
#X connect 107 0 108 0;
#X connect 108 0 152 0;
#X connect 109 0 108 1;
#X connect 110 0 111 0;
#X connect 111 0 155 0;
#X connect 112 0 111 1;
#X connect 113 0 114 0;
#X connect 114 0 156 0;
#X connect 115 0 114 1;
#X connect 116 0 117 0;
#X connect 117 0 157 0;
#X connect 118 0 117 1;
#X connect 119 0 127 0;
#X connect 120 0 124 1;
#X connect 121 0 124 1;
#X connect 124 0 123 0;
#X connect 125 0 127 1;
#X connect 126 0 127 1;
#X connect 127 0 122 0;
#X connect 130 0 148 0;
#X connect 130 0 148 1;
#X connect 130 0 148 2;
#X connect 131 0 130 0;
#X connect 132 0 133 0;
#X connect 133 0 131 0;
#X connect 134 0 149 0;
#X connect 134 0 149 1;
#X connect 134 0 149 2;
#X connect 135 0 134 0;
#X connect 136 0 137 0;
#X connect 137 0 135 0;
#X connect 138 0 133 0;
#X connect 139 0 137 0;
#X connect 140 0 144 0;
#X connect 141 0 147 0;
#X connect 142 0 144 1;
#X connect 143 0 144 1;
#X connect 144 0 150 0;
#X connect 145 0 147 1;
#X connect 146 0 147 1;
#X connect 147 0 151 0;
#X connect 148 0 140 0;
#X connect 149 0 141 0;
#X connect 161 0 72 0;
#X connect 161 0 73 0;
#X connect 161 0 74 0;
#X connect 161 0 75 0;
#X connect 161 0 79 0;
#X connect 161 0 78 0;
#X connect 161 0 77 0;
#X connect 161 0 76 0;
#X connect 162 0 33 0;
#X connect 162 0 38 0;
#X connect 162 0 43 0;
#X connect 162 0 47 0;
#X connect 162 0 51 0;
#X connect 162 0 55 0;
#X connect 162 0 59 0;
#X connect 162 0 63 0;
#X connect 163 0 84 0;
#X connect 163 0 132 0;
#X connect 163 0 88 0;
#X connect 163 0 136 0;
#X connect 164 0 90 0;
#X connect 164 0 138 0;
#X connect 164 0 91 0;
#X connect 164 0 139 0;
