#N canvas 0 0 1362 686 10;
#X declare -lib mrpeach;
#X obj 66 103 unpackOSC;
#X obj 42 30 import mrpeach;
#X obj 66 79 udpreceive 3334;
#N canvas 840 233 450 301 maxValOut 0;
#X floatatom 70 158 5 0 0 0 - - -;
#X floatatom 151 157 5 0 0 0 - - -;
#X floatatom 236 155 5 0 0 0 - - -;
#X floatatom 75 52 5 0 0 0 - - -;
#X floatatom 220 50 5 0 0 0 - - -;
#X obj 75 79 expr $f1 \; $f2 \; if ($f1 > $f2 \, $f1 \, $f2) \;;
#X obj 119 184 max;
#X floatatom 123 212 5 0 0 0 - - -;
#X msg 185 26 \$1;
#X obj 113 260 outlet;
#X obj 32 10 inlet;
#X msg 319 70 0;
#X obj 313 49 loadbang;
#X obj 251 14 inlet;
#X connect 0 0 6 0;
#X connect 1 0 6 1;
#X connect 3 0 5 0;
#X connect 4 0 5 1;
#X connect 5 0 0 0;
#X connect 5 1 1 0;
#X connect 5 2 2 0;
#X connect 6 0 7 0;
#X connect 7 0 8 0;
#X connect 7 0 9 0;
#X connect 8 0 4 0;
#X connect 10 0 3 0;
#X connect 11 0 4 0;
#X connect 11 0 3 0;
#X connect 11 0 7 0;
#X connect 12 0 11 0;
#X connect 13 0 11 0;
#X restore -92 574 pd maxValOut;
#N canvas 840 233 450 301 minValOut 0;
#X floatatom 70 158 5 0 0 0 - - -;
#X floatatom 151 157 5 0 0 0 - - -;
#X floatatom 236 155 5 0 0 0 - - -;
#X floatatom 75 52 5 0 0 0 - - -;
#X floatatom 220 50 5 0 0 0 - - -;
#X floatatom 123 212 5 0 0 0 - - -;
#X msg 185 26 \$1;
#X obj 113 260 outlet;
#X obj 32 10 inlet;
#X msg 319 70 0;
#X obj 313 49 loadbang;
#X obj 251 14 inlet;
#X obj 75 79 expr $f1 \; $f2 \; if ($f1 < $f2 \, $f1 \, $f2) \;;
#X obj 119 184 min;
#X connect 0 0 13 0;
#X connect 1 0 13 1;
#X connect 3 0 12 0;
#X connect 4 0 12 1;
#X connect 5 0 6 0;
#X connect 5 0 7 0;
#X connect 6 0 4 0;
#X connect 8 0 3 0;
#X connect 9 0 4 0;
#X connect 9 0 3 0;
#X connect 9 0 5 0;
#X connect 10 0 9 0;
#X connect 11 0 9 0;
#X connect 12 0 0 0;
#X connect 12 1 1 0;
#X connect 12 2 2 0;
#X connect 13 0 5 0;
#X restore 3 565 pd minValOut;
#X obj -23 551 bng 15 250 50 0 empty empty empty 17 7 0 10 -262144
-1 -1;
#X obj 68 550 bng 15 250 50 0 empty empty empty 17 7 0 10 -262144 -1
-1;
#X floatatom -92 609 5 0 0 0 - - -;
#X floatatom -1 610 5 0 0 0 - - -;
#X obj 540 154 vsl 100 200 0 100 0 0 empty 20-slider empty 0 -9 0 4
-4034 -1 -1 0 1;
#X obj 657 154 vsl 100 200 0 100 0 0 empty 13-slider empty 0 -9 0 4
-258113 -1 -1 0 1;
#X obj 772 154 vsl 100 200 0 100 0 0 empty 21-slider empty 0 -9 0 4
-257985 -1 -1 0 1;
#X obj 889 154 vsl 100 200 0 100 0 0 empty 22-slider empty 0 -9 0 4
-4160 -1 -1 0 1;
#X obj 538 376 vsl 100 200 0 100 0 0 empty 23-slider empty 0 -9 0 4
-159808 -1 -1 0 1;
#X obj 655 376 vsl 100 200 0 100 0 0 empty 24-slider empty 0 -9 0 4
-83269 -1 -1 0 1;
#X obj 770 376 vsl 100 200 0 100 0 0 empty 25-slider empty 0 -9 0 4
-162280 -1 -1 0 1;
#X obj 887 376 vsl 100 200 0 100 0 0 empty 26-slider empty 0 -9 0 4
-204786 -1 -1 0 1;
#X floatatom 1032 262 5 0 0 0 - - -;
#X obj 1032 227 random 100;
#X obj 1032 133 bng 15 250 50 0 empty empty empty 17 7 0 10 -262144
-1 -1;
#X floatatom 1034 322 5 0 0 0 - - -;
#X obj 1032 190 metro 1000;
#X floatatom 1123 262 5 0 0 0 - - -;
#X obj 1123 227 random 100;
#X obj 1123 133 bng 15 250 50 0 empty empty empty 17 7 0 10 -262144
-1 -1;
#X obj 1123 190 metro 1000;
#X floatatom 1232 258 5 0 0 0 - - -;
#X obj 1232 223 random 100;
#X obj 1232 129 bng 15 250 50 0 empty empty empty 17 7 0 10 -262144
-1 -1;
#X obj 1232 186 metro 1000;
#X floatatom 1323 258 5 0 0 0 - - -;
#X obj 1323 223 random 100;
#X obj 1323 129 bng 15 250 50 0 empty empty empty 17 7 0 10 -262144
-1 -1;
#X obj 1323 186 metro 1000;
#X floatatom 1049 511 5 0 0 0 - - -;
#X obj 1049 476 random 100;
#X obj 1046 410 bng 15 250 50 0 empty empty empty 17 7 0 10 -262144
-1 -1;
#X obj 1049 439 metro 1000;
#X floatatom 1140 511 5 0 0 0 - - -;
#X obj 1140 476 random 100;
#X obj 1140 407 bng 15 250 50 0 empty empty empty 17 7 0 10 -262144
-1 -1;
#X obj 1140 439 metro 1000;
#X floatatom 1249 507 5 0 0 0 - - -;
#X obj 1249 472 random 100;
#X obj 1250 405 bng 15 250 50 0 empty empty empty 17 7 0 10 -262144
-1 -1;
#X obj 1249 435 metro 1000;
#X floatatom 1340 507 5 0 0 0 - - -;
#X obj 1340 472 random 100;
#X obj 1337 407 bng 15 250 50 0 empty empty empty 17 7 0 10 -262144
-1 -1;
#X obj 1340 435 metro 1000;
#X msg 1040 158 0;
#X msg 1129 158 0;
#X msg 1241 157 0;
#X msg 1331 157 0;
#X msg 1065 414 0;
#X msg 1161 408 0;
#X msg 1272 407 0;
#X msg 1362 408 0;
#X obj 1757 181 vsl 100 200 0 100 0 0 empty 27-slider empty 0 -9 0
4 -260097 -1 -1 0 1;
#X obj 1753 403 vsl 100 200 0 100 0 0 empty 28-slider empty 0 -9 0
4 -159808 -1 -1 0 1;
#X floatatom 1440 254 5 0 0 0 - - -;
#X obj 1440 219 random 100;
#X obj 1440 125 bng 15 250 50 0 empty empty empty 17 7 0 10 -262144
-1 -1;
#X obj 1440 182 metro 1000;
#X floatatom 1457 503 5 0 0 0 - - -;
#X obj 1457 468 random 100;
#X obj 1454 403 bng 15 250 50 0 empty empty empty 17 7 0 10 -262144
-1 -1;
#X obj 1457 431 metro 1000;
#X msg 1448 153 0;
#X msg 1479 404 0;
#X obj 1072 341 *;
#X obj 1081 319 tgl 15 0 empty empty empty 17 7 0 10 -262144 -1 -1
0 1;
#X floatatom 1122 319 5 0 0 0 - - -;
#X obj 1160 338 *;
#X obj 1169 316 tgl 15 0 empty empty empty 17 7 0 10 -262144 -1 -1
0 1;
#X floatatom 1232 319 5 0 0 0 - - -;
#X obj 1270 338 *;
#X obj 1279 316 tgl 15 0 empty empty empty 17 7 0 10 -262144 -1 -1
0 1;
#X floatatom 1338 319 5 0 0 0 - - -;
#X obj 1374 340 *;
#X obj 1385 316 tgl 15 0 empty empty empty 17 7 0 10 -262144 -1 -1
0 1;
#X floatatom 1447 313 5 0 0 0 - - -;
#X floatatom 1052 565 5 0 0 0 - - -;
#X obj 1090 584 *;
#X obj 1099 562 tgl 15 0 empty empty empty 17 7 0 10 -262144 -1 -1
0 1;
#X floatatom 1141 564 5 0 0 0 - - -;
#X obj 1179 583 *;
#X obj 1188 561 tgl 15 0 empty empty empty 17 7 0 10 -262144 -1 -1
0 1;
#X floatatom 1247 563 5 0 0 0 - - -;
#X obj 1285 582 *;
#X obj 1294 560 tgl 15 0 empty empty empty 17 7 0 10 -262144 -1 -1
0 1;
#X floatatom 1337 561 5 0 0 0 - - -;
#X obj 1375 580 *;
#X obj 1384 558 tgl 15 0 empty empty empty 17 7 0 10 -262144 -1 -1
0 1;
#X floatatom 1457 558 5 0 0 0 - - -;
#X msg 1516 310 0;
#X msg 1488 310 1;
#X obj 1460 603 midiSenderSlider 10;
#X obj 1460 364 midiSenderSlider 9;
#X obj 1467 338 spigot;
#X msg 1540 555 0;
#X msg 1512 555 1;
#X obj 1491 583 spigot;
#X obj 1880 179 vsl 100 200 100 0 0 0 empty 29-slider empty 0 -9 0
4 -228856 -1 -1 0 1;
#X obj 1876 401 vsl 100 200 0 100 0 0 empty 30-slider empty 0 -9 0
4 -45076 -1 -1 0 1;
#X floatatom 1573 252 5 0 0 0 - - -;
#X obj 1573 217 random 100;
#X obj 1573 123 bng 15 250 50 0 empty empty empty 17 7 0 10 -262144
-1 -1;
#X obj 1573 180 metro 1000;
#X floatatom 1590 501 5 0 0 0 - - -;
#X obj 1590 466 random 100;
#X obj 1587 401 bng 15 250 50 0 empty empty empty 17 7 0 10 -262144
-1 -1;
#X obj 1590 429 metro 1000;
#X msg 1581 151 0;
#X msg 1612 402 0;
#X floatatom 1580 311 5 0 0 0 - - -;
#X floatatom 1590 556 5 0 0 0 - - -;
#X msg 1649 308 0;
#X msg 1621 308 1;
#X obj 1600 336 spigot;
#X msg 1673 553 0;
#X msg 1645 553 1;
#X obj 1624 581 spigot;
#X obj 1593 362 midiSenderSlider 11;
#X obj 1592 601 midiSenderSlider 12;
#X obj 1069 23 bng 15 250 50 0 empty empty empty 17 7 0 10 -262144
-1 -1;
#X obj 1042 24 bng 15 250 50 0 empty empty empty 17 7 0 10 -262144
-1 -1;
#X obj 1433 54 bng 15 250 50 0 empty empty empty 17 7 0 10 -262144
-1 -1;
#X obj 1549 65 bng 15 250 50 0 empty empty empty 17 7 0 10 -262144
-1 -1;
#X obj 31 138 s nOSCMsg;
#X obj -141 204 vsl 45 128 0 127 0 0 blueSliderMidi blueSlider empty
0 -9 0 10 -4160 -1 -1 0 1;
#X obj -89 204 vsl 45 128 0 127 0 0 redSliderMidi redSlider empty 0
-9 0 10 -258113 -1 -1 0 1;
#X obj -37 204 vsl 45 128 0 127 0 0 greenSliderMidi greenSlider empty
0 -9 0 10 -4034 -1 -1 0 1;
#X obj 15 204 vsl 45 128 0 127 0 0 yellowSliderMidi yellowSlider empty
0 -9 0 10 -257985 -1 -1 0 1;
#X obj -141 343 vsl 45 128 0 127 0 0 purpleSliderMidi purpleSlider
empty 0 -9 0 10 -159808 -1 -1 0 1;
#X obj -89 343 vsl 45 128 0 127 0 0 orangeSliderMidi orangeSlider empty
0 -9 0 10 -260097 -1 -1 0 1;
#X obj -37 343 vsl 45 128 0 127 0 0 brownSliderMidi brownSlider empty
0 -9 0 10 -83269 -1 -1 0 1;
#X obj 15 343 vsl 45 128 0 127 0 0 cyanSliderMidi cyanSlider empty
0 -9 0 10 -4032 -1 -1 0 1;
#X obj 66 204 vsl 45 128 0 127 0 0 blackSliderMidi blackSlider empty
0 -9 0 10 -33289 -1 -1 0 1;
#X obj 64 343 vsl 45 128 0 127 0 0 greySliderMidi greySlider empty
0 -9 0 10 -162280 -1 -1 0 1;
#X obj 157 332 colorsHub;
#X obj 250 468 many/instances 2 ../oscNodeSimulator;
#X obj 214 145 print;
#X obj 241 276 many/instances 80 ../nRouteOSC;
#X obj 214 120 spigot;
#X obj 240 90 tgl 15 0 empty empty empty 17 7 0 10 -262144 -1 -1 0
1;
#N canvas -8 -8 1366 686 routeMidi 0;
#X obj 323 484 midiSenderSlider 10;
#X obj -183 478 midiSenderSlider 6;
#X obj -55 479 midiSenderSlider 7;
#X obj 66 520 midiSenderSlider 8;
#X obj 197 482 midiSenderSlider 9;
#X obj -183 435 spigot;
#X obj -150 408 tgl 15 0 empty allTogg empty 17 7 0 10 -262144 -1 -1
1 1;
#X obj -150 374 loadbang;
#X obj 686 71 tgl 15 0 allTogg empty empty 17 7 0 10 -262144 -1 -1
0 1;
#X obj -55 438 spigot;
#X obj -22 411 tgl 15 0 empty allTogg empty 17 7 0 10 -262144 -1 -1
1 1;
#X obj -22 377 loadbang;
#X obj 66 490 spigot;
#X obj 99 463 tgl 15 0 empty allTogg empty 17 7 0 10 -262144 -1 -1
1 1;
#X obj 99 429 loadbang;
#X obj 197 440 spigot;
#X obj 230 413 tgl 15 0 empty allTogg empty 17 7 0 10 -262144 -1 -1
1 1;
#X obj 230 379 loadbang;
#X obj 323 436 spigot;
#X obj 356 409 tgl 15 0 empty allTogg empty 17 7 0 10 -262144 -1 -1
1 1;
#X obj 356 375 loadbang;
#X obj -209 68 spigot;
#X obj -176 41 tgl 15 0 empty allTogg empty 17 7 0 10 -262144 -1 -1
1 1;
#X obj -176 9 loadbang;
#X obj -81 71 spigot;
#X obj -48 44 tgl 15 0 empty allTogg empty 17 7 0 10 -262144 -1 -1
1 1;
#X obj -48 10 loadbang;
#X obj 43 69 spigot;
#X obj 76 42 tgl 15 0 empty allTogg empty 17 7 0 10 -262144 -1 -1 1
1;
#X obj 76 8 loadbang;
#X obj 171 73 spigot;
#X obj 204 46 tgl 15 0 empty allTogg empty 17 7 0 10 -262144 -1 -1
1 1;
#X obj 204 12 loadbang;
#X obj 297 69 spigot;
#X obj 330 42 tgl 15 0 empty allTogg empty 17 7 0 10 -262144 -1 -1
1 1;
#X obj 330 8 loadbang;
#X obj -209 -71 vsl 15 128 0 127 0 0 empty s1 empty 0 -9 0 10 -262144
-1 -1 1600 1;
#X obj -81 -70 vsl 15 128 0 127 0 0 empty s2 empty 0 -9 0 10 -262144
-1 -1 6300 1;
#X obj 43 -73 vsl 15 128 0 127 0 0 empty s3 empty 0 -9 0 10 -262144
-1 -1 9700 1;
#X obj 170 -71 vsl 15 128 0 127 0 0 empty s4 empty 0 -9 0 10 -262144
-1 -1 8700 1;
#X obj 297 -74 vsl 15 128 0 127 0 0 empty s5 empty 0 -9 0 10 -262144
-1 -1 4800 1;
#X obj -183 293 vsl 15 128 0 127 0 0 empty s6 empty 0 -9 0 10 -262144
-1 -1 3100 1;
#X obj -55 294 vsl 15 128 0 127 0 0 empty s7 empty 0 -9 0 10 -262144
-1 -1 5100 1;
#X obj 61 305 vsl 15 128 0 4.60517 0 0 empty empty empty 0 -9 0 10
-262144 -1 -1 4300 1;
#X obj 196 293 vsl 15 128 64 127 0 0 empty s9 empty 0 -9 0 10 -262144
-1 -1 0 1;
#X obj 321 290 vsl 15 128 0 127 0 0 empty s10 empty 0 -9 0 10 -262144
-1 -1 6200 1;
#X obj 297 -108 spigot;
#X obj 330 -135 tgl 15 0 empty allTogg empty 17 7 0 10 -262144 -1 -1
0 1;
#X obj 330 -169 loadbang;
#X obj 171 -110 spigot;
#X obj 204 -137 tgl 15 0 empty allTogg empty 17 7 0 10 -262144 -1 -1
0 1;
#X obj 204 -171 loadbang;
#X obj 43 -117 spigot;
#X obj 76 -144 tgl 15 0 empty allTogg empty 17 7 0 10 -262144 -1 -1
0 1;
#X obj 76 -178 loadbang;
#X obj -83 -119 spigot;
#X obj -50 -146 tgl 15 0 empty allTogg empty 17 7 0 10 -262144 -1 -1
0 1;
#X obj -50 -180 loadbang;
#X obj -207 -120 spigot;
#X obj -174 -147 tgl 15 0 empty allTogg empty 17 7 0 10 -262144 -1
-1 0 1;
#X obj -174 -181 loadbang;
#X obj 319 169 r blackSliderMidi;
#X obj 319 262 spigot;
#X obj 352 235 tgl 15 0 empty allTogg empty 17 7 0 10 -262144 -1 -1
0 1;
#X obj 352 201 loadbang;
#X obj 193 260 spigot;
#X obj 226 229 tgl 15 0 empty allTogg empty 17 7 0 10 -262144 -1 -1
0 1;
#X obj 226 199 loadbang;
#X obj 69 254 spigot;
#X obj 100 233 tgl 15 0 empty allTogg empty 17 7 0 10 -262144 -1 -1
0 1;
#X obj 100 199 loadbang;
#X obj -59 258 spigot;
#X obj -26 231 tgl 15 0 empty allTogg empty 17 7 0 10 -262144 -1 -1
0 1;
#X obj -26 197 loadbang;
#X obj -183 256 spigot;
#X obj -150 230 tgl 15 0 empty allTogg empty 17 7 0 10 -262144 -1 -1
0 1;
#X obj -150 196 loadbang;
#X obj -207 -213 r blueSliderMidi;
#X obj -83 -212 r redSliderMidi;
#X obj 43 -210 r yellowSliderMidi;
#X obj 171 -203 r orangeSliderMidi;
#X obj 297 -201 r cyanSliderMidi;
#X obj -183 164 r greenSliderMidi;
#X obj -59 165 r purpleSliderMidi;
#X obj 67 167 r greySliderMidi;
#X obj 193 167 r brownSliderMidi;
#X text 644 45 Genearal Switch;
#X obj 687 147 tgl 15 0 midiOnOff empty empty 17 7 0 10 -262144 -1
-1 1 1;
#X text 659 116 Midi Switch;
#X obj -1 410 tgl 15 0 empty midiOnOff empty 17 7 0 10 -262144 -1 -1
1 1;
#X obj 250 402 tgl 15 0 empty midiOnOff empty 17 7 0 10 -262144 -1
-1 1 1;
#X obj 375 396 tgl 15 0 empty midiOnOff empty 17 7 0 10 -262144 -1
-1 1 1;
#X obj 121 452 tgl 15 0 empty midiOnOff empty 17 7 0 10 -262144 -1
-1 1 1;
#X obj -129 406 tgl 15 0 empty midiOnOff empty 17 7 0 10 -262144 -1
-1 1 1;
#X obj 350 42 tgl 15 0 empty midiOnOff empty 17 7 0 10 -262144 -1 -1
1 1;
#X obj 222 46 tgl 15 0 empty midiOnOff empty 17 7 0 10 -262144 -1 -1
1 1;
#X obj 93 43 tgl 15 0 empty midiOnOff empty 17 7 0 10 -262144 -1 -1
1 1;
#X obj -27 44 tgl 15 0 empty midiOnOff empty 17 7 0 10 -262144 -1 -1
1 1;
#X obj -157 41 tgl 15 0 empty midiOnOff empty 17 7 0 10 -262144 -1
-1 1 1;
#X obj 43 102 midiSender 3;
#X obj -81 102 midiSender 2;
#X obj -209 103 midiSender 1;
#X obj 171 104 midiSender 4;
#X obj 297 102 midiSender 5;
#X obj 532 -127 tgl 15 0 empty empty empty 17 7 0 10 -262144 -1 -1
0 1;
#X obj 503 -55 s s1;
#X obj 536 -56 s s2;
#X obj 569 -56 s s3;
#X obj 602 -56 s s4;
#X obj 634 -56 s s5;
#X obj 702 -93 simulateSliders;
#X obj 702 -129 tgl 15 0 empty empty empty 17 7 0 10 -262144 -1 -1
0 1;
#X obj 673 -57 s s6;
#X obj 706 -58 s s7;
#X obj 739 -58 s s8;
#X obj 772 -58 s s9;
#X obj 804 -58 s s10;
#X obj 532 -91 simulateSliders;
#X obj 6 285 maxlib/scale 0 127 0 4.60517;
#X obj 15 253 r s8;
#X obj 67 454 exp;
#X connect 5 0 1 0;
#X connect 6 0 5 1;
#X connect 7 0 6 0;
#X connect 9 0 2 0;
#X connect 10 0 9 1;
#X connect 11 0 10 0;
#X connect 12 0 3 0;
#X connect 13 0 12 1;
#X connect 14 0 13 0;
#X connect 15 0 4 0;
#X connect 16 0 15 1;
#X connect 17 0 16 0;
#X connect 18 0 0 0;
#X connect 19 0 18 1;
#X connect 20 0 19 0;
#X connect 21 0 101 0;
#X connect 22 0 21 1;
#X connect 23 0 22 0;
#X connect 24 0 100 0;
#X connect 25 0 24 1;
#X connect 26 0 25 0;
#X connect 27 0 99 0;
#X connect 28 0 27 1;
#X connect 29 0 28 0;
#X connect 30 0 102 0;
#X connect 31 0 30 1;
#X connect 32 0 31 0;
#X connect 33 0 103 0;
#X connect 34 0 33 1;
#X connect 35 0 34 0;
#X connect 36 0 21 0;
#X connect 37 0 24 0;
#X connect 38 0 27 0;
#X connect 39 0 30 0;
#X connect 40 0 33 0;
#X connect 41 0 5 0;
#X connect 42 0 9 0;
#X connect 43 0 120 0;
#X connect 44 0 15 0;
#X connect 45 0 18 0;
#X connect 46 0 40 0;
#X connect 47 0 46 1;
#X connect 48 0 47 0;
#X connect 49 0 39 0;
#X connect 50 0 49 1;
#X connect 51 0 50 0;
#X connect 52 0 38 0;
#X connect 53 0 52 1;
#X connect 54 0 53 0;
#X connect 55 0 37 0;
#X connect 56 0 55 1;
#X connect 57 0 56 0;
#X connect 58 0 36 0;
#X connect 59 0 58 1;
#X connect 60 0 59 0;
#X connect 61 0 62 0;
#X connect 62 0 45 0;
#X connect 63 0 62 1;
#X connect 64 0 63 0;
#X connect 65 0 44 0;
#X connect 66 0 65 1;
#X connect 67 0 66 0;
#X connect 68 0 118 0;
#X connect 69 0 68 1;
#X connect 70 0 69 0;
#X connect 71 0 42 0;
#X connect 72 0 71 1;
#X connect 73 0 72 0;
#X connect 74 0 41 0;
#X connect 75 0 74 1;
#X connect 76 0 75 0;
#X connect 77 0 58 0;
#X connect 78 0 55 0;
#X connect 79 0 52 0;
#X connect 80 0 49 0;
#X connect 81 0 46 0;
#X connect 82 0 74 0;
#X connect 83 0 71 0;
#X connect 84 0 68 0;
#X connect 85 0 65 0;
#X connect 89 0 10 0;
#X connect 90 0 16 0;
#X connect 91 0 19 0;
#X connect 92 0 13 0;
#X connect 93 0 6 0;
#X connect 94 0 34 0;
#X connect 95 0 31 0;
#X connect 96 0 28 0;
#X connect 97 0 25 0;
#X connect 98 0 22 0;
#X connect 104 0 117 0;
#X connect 110 0 112 0;
#X connect 110 1 113 0;
#X connect 110 2 114 0;
#X connect 110 3 115 0;
#X connect 110 4 116 0;
#X connect 111 0 110 0;
#X connect 117 0 105 0;
#X connect 117 1 106 0;
#X connect 117 2 107 0;
#X connect 117 3 108 0;
#X connect 117 4 109 0;
#X connect 118 0 43 0;
#X connect 119 0 118 0;
#X connect 120 0 12 0;
#X restore 153 361 pd routeMidi;
#X obj 1039 368 midiSender 5;
#X obj 1049 608 midiSender 1;
#X obj -185 605 midiSender 1;
#X obj 1137 607 midiSender 2;
#X obj 1246 606 midiSender 3;
#X obj 1343 607 midiSender 4;
#X obj 1142 370 midiSender 6;
#X obj 1253 365 midiSender 7;
#X obj 1365 365 midiSender 8;
#X obj -189 566 averageAcc 20;
#X obj 1031 291 averageAcc 22;
#X obj 1122 291 averageAcc 23;
#X obj 1231 287 averageAcc 24;
#X obj 1322 287 averageAcc 25;
#X obj 1048 540 averageAcc 26;
#X obj 1139 540 averageAcc 21;
#X obj 1248 536 averageAcc 20;
#X obj 1339 536 averageAcc 13;
#X obj 1439 283 averageAcc 27;
#X obj 1456 532 averageAcc 28;
#X obj 1572 281 averageAcc 29;
#X obj 1589 530 averageAcc 30;
#X connect 0 0 129 0;
#X connect 0 0 144 0;
#X connect 2 0 0 0;
#X connect 3 0 7 0;
#X connect 4 0 8 0;
#X connect 5 0 3 1;
#X connect 6 0 4 1;
#X connect 17 0 157 0;
#X connect 17 0 157 1;
#X connect 17 0 157 2;
#X connect 18 0 17 0;
#X connect 19 0 21 0;
#X connect 20 0 70 0;
#X connect 21 0 18 0;
#X connect 22 0 158 0;
#X connect 22 0 158 1;
#X connect 22 0 158 2;
#X connect 23 0 22 0;
#X connect 24 0 25 0;
#X connect 25 0 23 0;
#X connect 26 0 159 0;
#X connect 26 0 159 1;
#X connect 26 0 159 2;
#X connect 27 0 26 0;
#X connect 28 0 29 0;
#X connect 29 0 27 0;
#X connect 30 0 160 0;
#X connect 30 0 160 1;
#X connect 30 0 160 2;
#X connect 31 0 30 0;
#X connect 32 0 33 0;
#X connect 33 0 31 0;
#X connect 34 0 161 0;
#X connect 34 0 161 1;
#X connect 34 0 161 2;
#X connect 35 0 34 0;
#X connect 36 0 37 0;
#X connect 37 0 35 0;
#X connect 38 0 162 0;
#X connect 38 0 162 1;
#X connect 38 0 162 2;
#X connect 39 0 38 0;
#X connect 40 0 41 0;
#X connect 41 0 39 0;
#X connect 42 0 163 0;
#X connect 42 0 163 1;
#X connect 42 0 163 2;
#X connect 43 0 42 0;
#X connect 44 0 45 0;
#X connect 45 0 43 0;
#X connect 46 0 164 0;
#X connect 46 0 164 1;
#X connect 46 0 164 2;
#X connect 47 0 46 0;
#X connect 48 0 49 0;
#X connect 49 0 47 0;
#X connect 50 0 21 0;
#X connect 51 0 25 0;
#X connect 52 0 29 0;
#X connect 53 0 33 0;
#X connect 54 0 37 0;
#X connect 55 0 41 0;
#X connect 56 0 45 0;
#X connect 57 0 49 0;
#X connect 60 0 165 0;
#X connect 60 0 165 1;
#X connect 60 0 165 2;
#X connect 61 0 60 0;
#X connect 62 0 63 0;
#X connect 63 0 61 0;
#X connect 64 0 166 0;
#X connect 64 0 166 1;
#X connect 64 0 166 2;
#X connect 65 0 64 0;
#X connect 66 0 67 0;
#X connect 67 0 65 0;
#X connect 68 0 63 0;
#X connect 69 0 67 0;
#X connect 70 0 147 0;
#X connect 71 0 70 1;
#X connect 72 0 73 0;
#X connect 73 0 153 0;
#X connect 74 0 73 1;
#X connect 75 0 76 0;
#X connect 76 0 154 0;
#X connect 77 0 76 1;
#X connect 78 0 79 0;
#X connect 79 0 155 0;
#X connect 80 0 79 1;
#X connect 81 0 99 0;
#X connect 82 0 83 0;
#X connect 83 0 148 0;
#X connect 84 0 83 1;
#X connect 85 0 86 0;
#X connect 86 0 150 0;
#X connect 87 0 86 1;
#X connect 88 0 89 0;
#X connect 89 0 151 0;
#X connect 90 0 89 1;
#X connect 91 0 92 0;
#X connect 92 0 152 0;
#X connect 93 0 92 1;
#X connect 94 0 102 0;
#X connect 95 0 99 1;
#X connect 96 0 99 1;
#X connect 99 0 98 0;
#X connect 100 0 102 1;
#X connect 101 0 102 1;
#X connect 102 0 97 0;
#X connect 105 0 167 0;
#X connect 105 0 167 1;
#X connect 105 0 167 2;
#X connect 106 0 105 0;
#X connect 107 0 108 0;
#X connect 108 0 106 0;
#X connect 109 0 168 0;
#X connect 109 0 168 1;
#X connect 109 0 168 2;
#X connect 110 0 109 0;
#X connect 111 0 112 0;
#X connect 112 0 110 0;
#X connect 113 0 108 0;
#X connect 114 0 112 0;
#X connect 115 0 119 0;
#X connect 116 0 122 0;
#X connect 117 0 119 1;
#X connect 118 0 119 1;
#X connect 119 0 123 0;
#X connect 120 0 122 1;
#X connect 121 0 122 1;
#X connect 122 0 124 0;
#X connect 125 0 50 0;
#X connect 125 0 51 0;
#X connect 125 0 52 0;
#X connect 125 0 53 0;
#X connect 125 0 57 0;
#X connect 125 0 56 0;
#X connect 125 0 55 0;
#X connect 125 0 54 0;
#X connect 126 0 19 0;
#X connect 126 0 24 0;
#X connect 126 0 28 0;
#X connect 126 0 32 0;
#X connect 126 0 36 0;
#X connect 126 0 40 0;
#X connect 126 0 44 0;
#X connect 126 0 48 0;
#X connect 127 0 62 0;
#X connect 127 0 107 0;
#X connect 127 0 66 0;
#X connect 127 0 111 0;
#X connect 128 0 68 0;
#X connect 128 0 113 0;
#X connect 128 0 69 0;
#X connect 128 0 114 0;
#X connect 144 0 142 0;
#X connect 145 0 144 1;
#X connect 156 0 149 0;
#X connect 157 0 20 0;
#X connect 158 0 72 0;
#X connect 159 0 75 0;
#X connect 160 0 78 0;
#X connect 161 0 82 0;
#X connect 162 0 85 0;
#X connect 163 0 88 0;
#X connect 164 0 91 0;
#X connect 165 0 81 0;
#X connect 166 0 94 0;
#X connect 167 0 115 0;
#X connect 168 0 116 0;
