#N canvas 690 146 1362 686 10;
#X floatatom -12140 191 5 0 0 0 - - -;
#X obj -12140 62 bng 15 250 50 0 empty empty empty 17 7 0 10 -262144
-1 -1;
#X floatatom -12049 191 5 0 0 0 - - -;
#X obj -12049 62 bng 15 250 50 0 empty empty empty 17 7 0 10 -262144
-1 -1;
#X floatatom -11940 187 5 0 0 0 - - -;
#X obj -11940 58 bng 15 250 50 0 empty empty empty 17 7 0 10 -262144
-1 -1;
#X floatatom -11849 187 5 0 0 0 - - -;
#X obj -11849 58 bng 15 250 50 0 empty empty empty 17 7 0 10 -262144
-1 -1;
#X msg -12132 87 0;
#X msg -12043 87 0;
#X msg -11931 86 0;
#X msg -11841 86 0;
#X floatatom -11732 183 5 0 0 0 - - -;
#X obj -11732 54 bng 15 250 50 0 empty empty empty 17 7 0 10 -262144
-1 -1;
#X msg -11724 82 0;
#X obj -12134 24 tgl 15 0 empty empty empty 17 7 0 10 -262144 -1 -1
1 1;
#X floatatom -12141 255 5 0 0 0 - - -;
#X floatatom -12048 254 5 0 0 0 - - -;
#X floatatom -11941 251 5 0 0 0 - - -;
#X floatatom -11846 246 5 0 0 0 - - -;
#X floatatom -11733 249 5 0 0 0 - - -;
#X obj -12140 156 random 127;
#X obj -12049 156 random 127;
#X obj -11940 152 random 127;
#X obj -11849 152 random 127;
#X obj -11732 148 random 127;
#X obj -12141 284 int;
#X obj -12049 286 int;
#X obj -11940 286 int;
#X obj -11848 288 int;
#X obj -11732 284 int;
#X obj -11731 334 outlet;
#X obj -12135 -12 inlet;
#X obj -11732 308 spigot;
#X obj -11849 342 outlet;
#X obj -11850 316 spigot;
#X obj -11935 341 outlet;
#X obj -11936 315 spigot;
#X obj -12053 349 outlet;
#X obj -12054 323 spigot;
#X obj -12138 345 outlet;
#X obj -12139 319 spigot;
#X obj -11732 111 metro 2000;
#X obj -11849 115 metro 2000;
#X obj -11940 115 metro 2000;
#X obj -12049 119 metro 2000;
#X obj -12140 119 metro 2000;
#X obj -11733 212 averageGeneric;
#X obj -11850 216 averageGeneric;
#X obj -11941 216 averageGeneric;
#X obj -12050 220 averageGeneric;
#X obj -12141 220 averageGeneric;
#X connect 0 0 51 0;
#X connect 1 0 46 0;
#X connect 2 0 50 0;
#X connect 3 0 45 0;
#X connect 4 0 49 0;
#X connect 5 0 44 0;
#X connect 6 0 48 0;
#X connect 7 0 43 0;
#X connect 8 0 46 0;
#X connect 9 0 45 0;
#X connect 10 0 44 0;
#X connect 11 0 43 0;
#X connect 12 0 47 0;
#X connect 13 0 42 0;
#X connect 14 0 42 0;
#X connect 15 0 41 1;
#X connect 15 0 39 1;
#X connect 15 0 37 1;
#X connect 15 0 35 1;
#X connect 15 0 33 1;
#X connect 15 0 42 0;
#X connect 15 0 43 0;
#X connect 15 0 44 0;
#X connect 15 0 45 0;
#X connect 15 0 46 0;
#X connect 16 0 26 0;
#X connect 17 0 27 0;
#X connect 18 0 28 0;
#X connect 19 0 29 0;
#X connect 20 0 30 0;
#X connect 21 0 0 0;
#X connect 22 0 2 0;
#X connect 23 0 4 0;
#X connect 24 0 6 0;
#X connect 25 0 12 0;
#X connect 26 0 41 0;
#X connect 27 0 39 0;
#X connect 28 0 37 0;
#X connect 29 0 35 0;
#X connect 30 0 33 0;
#X connect 32 0 15 0;
#X connect 33 0 31 0;
#X connect 35 0 34 0;
#X connect 37 0 36 0;
#X connect 39 0 38 0;
#X connect 41 0 40 0;
#X connect 42 0 25 0;
#X connect 43 0 24 0;
#X connect 44 0 23 0;
#X connect 45 0 22 0;
#X connect 46 0 21 0;
#X connect 47 0 20 0;
#X connect 48 0 19 0;
#X connect 49 0 18 0;
#X connect 50 0 17 0;
#X connect 51 0 16 0;
