#N canvas 637 88 450 459 10;
#X obj 617 205 gemhead;
#X floatatom 244 145 5 0 0 0 - - -;
#X obj 221 170 translateXYZ;
#X floatatom 274 121 5 0 0 0 - - -;
#X floatatom 308 103 5 0 0 0 - - -;
#X obj 221 195 circle 1 10;
#X obj 259 18 loadbang;
#X msg 308 75 -5;
#X msg 274 88 -8;
#X msg 244 116 -16;
#X obj 82 14 r \$1-spX;
#X obj 140 14 r \$1-spY;
#X obj 197 16 r \$1-spZ;
#X obj 617 334 color;
#X msg 928 124 1 1 1;
#X msg 893 78 1 0 0;
#X text 671 -47 change the color;
#X text 371 12 create and destroy the graphics window;
#X obj 893 188 rgb2hsv;
#X obj 748 225 hsv2rgb;
#X obj 748 252 unpack 0 0 0;
#X floatatom 748 285 0 0 0 3 red - -;
#X floatatom 800 283 0 0 0 3 green - -;
#X floatatom 859 283 0 0 0 3 blue - -;
#X obj 910 249 unpack 0 0 0;
#X floatatom 910 338 0 0 0 3 hue - -;
#X floatatom 962 313 0 0 0 3 saturation - -;
#X floatatom 1001 275 0 0 0 3 value - -;
#X msg 981 168 0 1 0;
#X floatatom 748 7 0 0 1 2 hue #0-hue -;
#X floatatom 769 43 0 0 1 2 saturation #0-saturation -;
#X obj 768 96 t b f;
#X floatatom 806 70 0 0 1 2 value #0-value -;
#X obj 806 96 t b f;
#X text 895 61 red;
#X text 928 107 white;
#X text 983 146 green;
#X obj 748 125 pack 0 1 1;
#X obj 901 -26 hsl 128 15 0 1 0 0 \$0-hue empty hue -2 -8 0 10 -262144
-1 -1 4699 1;
#X obj 901 4 hsl 128 15 0 1 0 0 \$0-saturation empty saturation -2
-8 0 10 -262144 -1 -1 4572 1;
#X obj 901 34 hsl 128 15 0 1 0 0 \$0-value empty value -2 -8 0 10 -262144
-1 -1 8255 1;
#X obj 858 -32 inlet;
#X obj 858 -3 inlet;
#X obj 859 20 inlet;
#X obj 58 143 autoscale -8 8;
#X connect 0 0 13 0;
#X connect 1 0 2 1;
#X connect 2 0 5 0;
#X connect 3 0 2 2;
#X connect 4 0 2 3;
#X connect 6 0 9 0;
#X connect 6 0 8 0;
#X connect 6 0 7 0;
#X connect 7 0 4 0;
#X connect 8 0 3 0;
#X connect 9 0 1 0;
#X connect 10 0 1 0;
#X connect 11 0 44 0;
#X connect 12 0 4 0;
#X connect 13 0 2 0;
#X connect 14 0 18 0;
#X connect 15 0 18 0;
#X connect 18 0 19 0;
#X connect 18 0 24 0;
#X connect 19 0 13 1;
#X connect 19 0 20 0;
#X connect 20 0 21 0;
#X connect 20 1 22 0;
#X connect 20 2 23 0;
#X connect 24 0 25 0;
#X connect 24 1 26 0;
#X connect 24 2 27 0;
#X connect 28 0 18 0;
#X connect 29 0 37 0;
#X connect 30 0 31 0;
#X connect 31 0 37 0;
#X connect 31 1 37 1;
#X connect 32 0 33 0;
#X connect 33 0 37 0;
#X connect 33 1 37 2;
#X connect 37 0 19 0;
#X connect 41 0 38 0;
#X connect 42 0 39 0;
#X connect 43 0 40 0;
#X connect 44 0 3 0;
