#N canvas 601 265 450 300 10;
#X obj -666 -6 r \$1-orangeX;
#X obj -587 -6 r \$1-orangeY;
#X obj -507 -6 r \$1-orangeZ;
#X obj -643 135 outlet;
#X obj -640 61 bng 15 250 50 0 empty empty empty 17 7 0 10 -262144
-1 -1;
#X obj -500 74 f \$1;
#X obj -643 91 pack \$1 \$2 \$3 \$4;
#X obj -461 41 bng 15 250 50 0 empty empty empty 17 7 0 10 -262144
-1 -1;
#X connect 0 0 6 0;
#X connect 0 0 7 0;
#X connect 1 0 4 0;
#X connect 1 0 6 1;
#X connect 1 0 7 0;
#X connect 2 0 4 0;
#X connect 2 0 6 2;
#X connect 2 0 7 0;
#X connect 4 0 6 0;
#X connect 5 0 6 3;
#X connect 6 0 3 0;
#X connect 7 0 5 0;
