#N canvas -8 -8 1366 686 10;
#X msg -368 127 fullscreen \$1;
#X obj -368 103 tgl 15 0 empty empty empty 17 7 0 10 -262144 -1 -1
0 1;
#X text 144 501 on;
#X text 181 499 off;
#X msg -43 525 1;
#X msg -7 527 0;
#X msg 138 527 1;
#X msg 176 527 0;
#X obj 214 545 gemhead 1;
#X msg -66 184 dimen 300 300;
#X msg -95 100 lighting 1;
#X obj 35 571 world_light;
#X obj 35 532 gemhead 1;
#X msg -96 72 lighting 0;
#X obj 214 582 light;
#X text -34 478 global light;
#X text 144 481 local light;
#X text -37 503 on;
#X text -7 504 off;
#X text -146 131 set the window size to 300 x 300;
#X text -270 27 you can turn lighting on and off while it is running
;
#N canvas 87 154 247 179 Gem.init 0;
#X obj 118 46 loadbang;
#X msg 118 81 reset;
#X obj 118 113 outlet;
#X connect 0 0 1 0;
#X connect 1 0 2 0;
#X restore -95 236 pd Gem.init;
#N canvas 408 127 682 322 gemwin 0;
#X obj 102 122 tgl 15 0 \$0-gemstart \$0-gemstart empty 17 7 0 10 -262144
-1 -1 1 1;
#X obj 102 161 r \$0-gemstart;
#X obj 102 182 select 1 0;
#X msg 102 214 create \, 1;
#X msg 177 215 destroy;
#X obj 102 239 t a;
#X obj 318 54 inlet;
#X obj 318 255 gemwin;
#X obj 318 100 t a a;
#X obj 318 287 outlet;
#X obj 350 128 route create destroy;
#X obj 350 150 t b;
#X msg 350 172 1;
#X obj 390 150 t b;
#X msg 390 172 0;
#X obj 350 195 t f;
#X msg 350 219 set \$1;
#X text 118 122 rendering;
#X obj 524 51 inlet;
#X connect 1 0 2 0;
#X connect 2 0 3 0;
#X connect 2 1 4 0;
#X connect 3 0 5 0;
#X connect 4 0 5 0;
#X connect 5 0 8 0;
#X connect 6 0 8 0;
#X connect 7 0 9 0;
#X connect 8 0 7 0;
#X connect 8 1 10 0;
#X connect 10 0 11 0;
#X connect 10 1 13 0;
#X connect 11 0 12 0;
#X connect 12 0 15 0;
#X connect 13 0 14 0;
#X connect 14 0 15 0;
#X connect 15 0 16 0;
#X connect 16 0 0 0;
#X connect 18 0 7 0;
#X coords 0 -1 1 1 85 40 1 100 100;
#X restore -125 253 pd gemwin;
#X obj 318 526 gemhead;
#X obj 315 632 rectangle 10 0.05;
#X obj 318 558 colorRGB 255 255 255;
#X obj 334 596 translateXYZ;
#X floatatom 439 593 5 0 0 0 - - -;
#X obj 321 660 gemhead;
#X obj 318 766 rectangle 10 0.05;
#X obj 321 692 colorRGB 255 255 255;
#X obj 337 730 translateXYZ;
#X floatatom 442 727 5 0 0 0 - - -;
#X obj 146 195 sphereXYZ 1;
#X floatatom 126 158 5 0 0 0 - - -;
#X floatatom 164 158 5 0 0 0 - - -;
#X floatatom 200 158 5 0 0 0 - - -;
#X floatatom 236 140 5 0 0 0 - - -;
#X msg 126 123 23;
#X msg 199 122 112;
#X msg 164 123 56;
#X obj 251 158 s 1-spX;
#X floatatom 327 157 5 0 0 0 - - -;
#X floatatom 365 157 5 0 0 0 - - -;
#X floatatom 401 157 5 0 0 0 - - -;
#X floatatom 437 139 5 0 0 0 - - -;
#X msg 327 122 23;
#X msg 400 121 112;
#X msg 365 122 56;
#X floatatom 516 157 5 0 0 0 - - -;
#X floatatom 554 157 5 0 0 0 - - -;
#X floatatom 590 157 5 0 0 0 - - -;
#X floatatom 626 139 5 0 0 0 - - -;
#X msg 516 122 23;
#X msg 589 121 112;
#X msg 554 122 56;
#X floatatom 717 156 5 0 1 0 - - -;
#X floatatom 755 156 5 0 0 0 - - -;
#X floatatom 791 156 5 0 0 0 - - -;
#X floatatom 827 138 5 0 0 0 - - -;
#X msg 717 121 23;
#X msg 790 120 112;
#X msg 755 121 56;
#X floatatom 911 154 5 0 0 0 - - -;
#X floatatom 949 154 5 0 0 0 - - -;
#X floatatom 985 154 5 0 0 0 - - -;
#X floatatom 1021 136 5 0 0 0 - - -;
#X msg 911 119 23;
#X msg 984 118 112;
#X msg 949 119 56;
#X obj 452 157 s 2-spX;
#X obj 347 194 sphereXYZ 2;
#X obj 536 194 sphereXYZ 3;
#X obj 737 193 sphereXYZ 4;
#X obj 931 191 sphereXYZ 5;
#X obj 1036 154 s 5-spX;
#X obj 842 156 s 4-spX;
#X obj 641 157 s 3-spX;
#X obj 125 -24 vsl 15 128 0 1 0 0 empty empty empty 0 -9 0 10 -262144
-1 -1 7112 1;
#X obj 319 -17 vsl 15 128 0 1 0 0 empty empty empty 0 -9 0 10 -262144
-1 -1 635 1;
#X obj 513 -17 vsl 15 128 0 1 0 0 empty empty empty 0 -9 0 10 -262144
-1 -1 0 1;
#X obj 711 -27 vsl 15 128 0 1 0 0 empty empty empty 0 -9 0 10 -262144
-1 -1 0 1;
#X obj 911 -21 vsl 15 128 0 1 0 0 empty empty empty 0 -9 0 10 -262144
-1 -1 0 1;
#X obj 167 -23 vsl 15 128 0 1 0 0 empty empty empty 0 -9 0 10 -262144
-1 -1 10541 1;
#X obj 364 -19 vsl 15 128 0 1 0 0 empty empty empty 0 -9 0 10 -262144
-1 -1 0 1;
#X obj 199 -21 vsl 15 128 0 1 0 0 empty empty empty 0 -9 0 10 -262144
-1 -1 7874 1;
#X obj 401 -22 vsl 15 128 0 1 0 0 empty empty empty 0 -9 0 10 -262144
-1 -1 0 1;
#X obj 551 -20 vsl 15 128 0 1 0 0 empty empty empty 0 -9 0 10 -262144
-1 -1 0 1;
#X obj 588 -23 vsl 15 128 0 1 0 0 empty empty empty 0 -9 0 10 -262144
-1 -1 0 1;
#X obj 751 -24 vsl 15 128 0 1 0 0 empty empty empty 0 -9 0 10 -262144
-1 -1 0 1;
#X obj 788 -27 vsl 15 128 0 1 0 0 empty empty empty 0 -9 0 10 -262144
-1 -1 0 1;
#X obj 953 -34 vsl 15 128 0 1 0 0 empty empty empty 0 -9 0 10 -262144
-1 -1 0 1;
#X obj 990 -37 vsl 15 128 0 1 0 0 empty empty empty 0 -9 0 10 -262144
-1 -1 0 1;
#X obj 837 108 s 4-spY;
#X floatatom 827 83 5 0 0 0 - - -;
#X msg 463 573 1;
#X msg 456 705 -2;
#X obj 494 631 loadbang;
#X floatatom 137 -56 5 0 0 0 - - -;
#X obj 133 -119 bng 15 250 50 0 empty empty empty 17 7 0 10 -262144
-1 -1;
#X obj 134 -95 random 100;
#X obj 135 -76 / 100;
#X obj 132 -141 loadbang;
#X floatatom 204 -57 5 0 0 0 - - -;
#X obj 202 -119 bng 15 250 50 0 empty empty empty 17 7 0 10 -262144
-1 -1;
#X obj 203 -95 random 100;
#X obj 204 -76 / 100;
#X obj 201 -141 loadbang;
#X floatatom 68 -56 5 0 0 0 - - -;
#X obj 66 -118 bng 15 250 50 0 empty empty empty 17 7 0 10 -262144
-1 -1;
#X obj 67 -94 random 100;
#X obj 68 -75 / 100;
#X obj 65 -140 loadbang;
#X floatatom 351 -56 5 0 0 0 - - -;
#X obj 347 -119 bng 15 250 50 0 empty empty empty 17 7 0 10 -262144
-1 -1;
#X obj 348 -95 random 100;
#X obj 349 -76 / 100;
#X obj 346 -141 loadbang;
#X floatatom 418 -57 5 0 0 0 - - -;
#X obj 416 -119 bng 15 250 50 0 empty empty empty 17 7 0 10 -262144
-1 -1;
#X obj 417 -95 random 100;
#X obj 418 -76 / 100;
#X obj 415 -141 loadbang;
#X floatatom 282 -56 5 0 0 0 - - -;
#X obj 280 -118 bng 15 250 50 0 empty empty empty 17 7 0 10 -262144
-1 -1;
#X obj 281 -94 random 100;
#X obj 282 -75 / 100;
#X obj 279 -140 loadbang;
#X floatatom 557 -58 5 0 0 0 - - -;
#X obj 553 -121 bng 15 250 50 0 empty empty empty 17 7 0 10 -262144
-1 -1;
#X obj 554 -97 random 100;
#X obj 555 -78 / 100;
#X obj 552 -143 loadbang;
#X floatatom 624 -59 5 0 0 0 - - -;
#X obj 622 -121 bng 15 250 50 0 empty empty empty 17 7 0 10 -262144
-1 -1;
#X obj 623 -97 random 100;
#X obj 624 -78 / 100;
#X obj 621 -143 loadbang;
#X floatatom 488 -58 5 0 0 0 - - -;
#X obj 486 -120 bng 15 250 50 0 empty empty empty 17 7 0 10 -262144
-1 -1;
#X obj 487 -96 random 100;
#X obj 488 -77 / 100;
#X obj 485 -142 loadbang;
#X floatatom 765 -70 5 0 0 0 - - -;
#X obj 761 -133 bng 15 250 50 0 empty empty empty 17 7 0 10 -262144
-1 -1;
#X obj 762 -109 random 100;
#X obj 763 -90 / 100;
#X obj 760 -155 loadbang;
#X floatatom 832 -71 5 0 0 0 - - -;
#X obj 830 -133 bng 15 250 50 0 empty empty empty 17 7 0 10 -262144
-1 -1;
#X obj 831 -109 random 100;
#X obj 832 -90 / 100;
#X obj 829 -155 loadbang;
#X floatatom 696 -70 5 0 0 0 - - -;
#X obj 694 -132 bng 15 250 50 0 empty empty empty 17 7 0 10 -262144
-1 -1;
#X obj 695 -108 random 100;
#X obj 696 -89 / 100;
#X obj 693 -154 loadbang;
#X floatatom 971 -75 5 0 0 0 - - -;
#X obj 967 -138 bng 15 250 50 0 empty empty empty 17 7 0 10 -262144
-1 -1;
#X obj 968 -114 random 100;
#X obj 969 -95 / 100;
#X obj 966 -160 loadbang;
#X floatatom 1038 -76 5 0 0 0 - - -;
#X obj 1036 -138 bng 15 250 50 0 empty empty empty 17 7 0 10 -262144
-1 -1;
#X obj 1037 -114 random 100;
#X obj 1038 -95 / 100;
#X obj 1035 -160 loadbang;
#X floatatom 902 -75 5 0 0 0 - - -;
#X obj 900 -137 bng 15 250 50 0 empty empty empty 17 7 0 10 -262144
-1 -1;
#X obj 901 -113 random 100;
#X obj 902 -94 / 100;
#X obj 899 -159 loadbang;
#X obj 244 90 loadbang;
#X msg 244 115 -15;
#X obj 439 86 loadbang;
#X obj 629 84 loadbang;
#X obj 821 32 loadbang;
#X obj 1027 76 loadbang;
#X msg 439 111 -13;
#X msg 629 109 -5;
#X msg 821 57 3;
#X msg 1027 101 7;
#X connect 0 0 22 1;
#X connect 1 0 0 0;
#X connect 4 0 11 0;
#X connect 5 0 11 0;
#X connect 6 0 14 0;
#X connect 7 0 14 0;
#X connect 8 0 14 0;
#X connect 9 0 22 0;
#X connect 10 0 22 0;
#X connect 12 0 11 0;
#X connect 13 0 22 0;
#X connect 21 0 22 0;
#X connect 23 0 25 0;
#X connect 25 0 26 0;
#X connect 26 0 24 0;
#X connect 27 0 26 2;
#X connect 28 0 30 0;
#X connect 30 0 31 0;
#X connect 31 0 29 0;
#X connect 32 0 31 2;
#X connect 34 0 33 0;
#X connect 35 0 33 1;
#X connect 36 0 33 2;
#X connect 37 0 41 0;
#X connect 38 0 34 0;
#X connect 39 0 36 0;
#X connect 40 0 35 0;
#X connect 42 0 71 0;
#X connect 43 0 71 1;
#X connect 44 0 71 2;
#X connect 45 0 70 0;
#X connect 46 0 42 0;
#X connect 47 0 44 0;
#X connect 48 0 43 0;
#X connect 49 0 72 0;
#X connect 50 0 72 1;
#X connect 51 0 72 2;
#X connect 52 0 77 0;
#X connect 53 0 49 0;
#X connect 54 0 51 0;
#X connect 55 0 50 0;
#X connect 56 0 73 0;
#X connect 57 0 73 1;
#X connect 58 0 73 2;
#X connect 59 0 76 0;
#X connect 60 0 56 0;
#X connect 61 0 58 0;
#X connect 62 0 57 0;
#X connect 63 0 74 0;
#X connect 64 0 74 1;
#X connect 65 0 74 2;
#X connect 66 0 75 0;
#X connect 67 0 63 0;
#X connect 68 0 65 0;
#X connect 69 0 64 0;
#X connect 78 0 34 0;
#X connect 79 0 42 0;
#X connect 80 0 49 0;
#X connect 81 0 56 0;
#X connect 82 0 63 0;
#X connect 83 0 35 0;
#X connect 84 0 43 0;
#X connect 85 0 36 0;
#X connect 86 0 44 0;
#X connect 87 0 50 0;
#X connect 88 0 51 0;
#X connect 89 0 57 0;
#X connect 90 0 58 0;
#X connect 91 0 64 0;
#X connect 92 0 65 0;
#X connect 94 0 93 0;
#X connect 95 0 27 0;
#X connect 96 0 32 0;
#X connect 97 0 96 0;
#X connect 97 0 95 0;
#X connect 98 0 83 0;
#X connect 99 0 100 0;
#X connect 100 0 101 0;
#X connect 101 0 98 0;
#X connect 102 0 99 0;
#X connect 103 0 85 0;
#X connect 104 0 105 0;
#X connect 105 0 106 0;
#X connect 106 0 103 0;
#X connect 107 0 104 0;
#X connect 108 0 78 0;
#X connect 109 0 110 0;
#X connect 110 0 111 0;
#X connect 111 0 108 0;
#X connect 112 0 109 0;
#X connect 113 0 84 0;
#X connect 114 0 115 0;
#X connect 115 0 116 0;
#X connect 116 0 113 0;
#X connect 117 0 114 0;
#X connect 118 0 86 0;
#X connect 119 0 120 0;
#X connect 120 0 121 0;
#X connect 121 0 118 0;
#X connect 122 0 119 0;
#X connect 123 0 79 0;
#X connect 124 0 125 0;
#X connect 125 0 126 0;
#X connect 126 0 123 0;
#X connect 127 0 124 0;
#X connect 128 0 87 0;
#X connect 129 0 130 0;
#X connect 130 0 131 0;
#X connect 131 0 128 0;
#X connect 132 0 129 0;
#X connect 133 0 88 0;
#X connect 134 0 135 0;
#X connect 135 0 136 0;
#X connect 136 0 133 0;
#X connect 137 0 134 0;
#X connect 138 0 80 0;
#X connect 139 0 140 0;
#X connect 140 0 141 0;
#X connect 141 0 138 0;
#X connect 142 0 139 0;
#X connect 143 0 89 0;
#X connect 144 0 145 0;
#X connect 145 0 146 0;
#X connect 146 0 143 0;
#X connect 147 0 144 0;
#X connect 148 0 90 0;
#X connect 149 0 150 0;
#X connect 150 0 151 0;
#X connect 151 0 148 0;
#X connect 152 0 149 0;
#X connect 153 0 81 0;
#X connect 154 0 155 0;
#X connect 155 0 156 0;
#X connect 156 0 153 0;
#X connect 157 0 154 0;
#X connect 158 0 91 0;
#X connect 159 0 160 0;
#X connect 160 0 161 0;
#X connect 161 0 158 0;
#X connect 162 0 159 0;
#X connect 163 0 92 0;
#X connect 164 0 165 0;
#X connect 165 0 166 0;
#X connect 166 0 163 0;
#X connect 167 0 164 0;
#X connect 168 0 82 0;
#X connect 169 0 170 0;
#X connect 170 0 171 0;
#X connect 171 0 168 0;
#X connect 172 0 169 0;
#X connect 173 0 174 0;
#X connect 174 0 37 0;
#X connect 175 0 179 0;
#X connect 176 0 180 0;
#X connect 177 0 181 0;
#X connect 178 0 182 0;
#X connect 179 0 45 0;
#X connect 180 0 52 0;
#X connect 181 0 59 0;
#X connect 182 0 66 0;
